solid CrossTemplate_Nine_sldprt
   facet normal -2.489966e-016 1.000000e+000 0.000000e+000
      outer loop
         vertex -6.000000e-002 3.000000e-002 2.790000e+000
         vertex -3.000000e-002 3.000000e-002 2.790000e+000
         vertex -6.000000e-002 3.000000e-002 0.000000e+000
      endloop
   endfacet
   facet normal -2.489966e-016 1.000000e+000 0.000000e+000
      outer loop
         vertex -6.000000e-002 3.000000e-002 0.000000e+000
         vertex -3.000000e-002 3.000000e-002 2.790000e+000
         vertex -3.000000e-002 3.000000e-002 0.000000e+000
      endloop
   endfacet
   facet normal -5.807913e-002 9.983119e-001 0.000000e+000
      outer loop
         vertex -6.000000e-002 3.000000e-002 2.790000e+000
         vertex -6.000000e-002 3.000000e-002 0.000000e+000
         vertex -6.520945e-002 2.954423e-002 0.000000e+000
      endloop
   endfacet
   facet normal -1.161583e-001 9.932307e-001 0.000000e+000
      outer loop
         vertex -6.000000e-002 3.000000e-002 2.790000e+000
         vertex -6.520945e-002 2.954423e-002 0.000000e+000
         vertex -6.520945e-002 2.954423e-002 2.790000e+000
      endloop
   endfacet
   facet normal -2.305519e-001 9.730600e-001 0.000000e+000
      outer loop
         vertex -6.520945e-002 2.954423e-002 2.790000e+000
         vertex -6.520945e-002 2.954423e-002 0.000000e+000
         vertex -7.026060e-002 2.819078e-002 0.000000e+000
      endloop
   endfacet
   facet normal -2.868663e-001 9.579706e-001 0.000000e+000
      outer loop
         vertex -6.520945e-002 2.954423e-002 2.790000e+000
         vertex -7.026060e-002 2.819078e-002 0.000000e+000
         vertex -7.026060e-002 2.819078e-002 2.790000e+000
      endloop
   endfacet
   facet normal -3.960194e-001 9.182422e-001 0.000000e+000
      outer loop
         vertex -7.026060e-002 2.819078e-002 2.790000e+000
         vertex -7.026060e-002 2.819078e-002 0.000000e+000
         vertex -7.500000e-002 2.598076e-002 0.000000e+000
      endloop
   endfacet
   facet normal -4.488580e-001 8.936031e-001 0.000000e+000
      outer loop
         vertex -7.026060e-002 2.819078e-002 2.790000e+000
         vertex -7.500000e-002 2.598076e-002 0.000000e+000
         vertex -7.500000e-002 2.598076e-002 2.790000e+000
      endloop
   endfacet
   facet normal -5.494540e-001 8.355240e-001 0.000000e+000
      outer loop
         vertex -7.500000e-002 2.598076e-002 2.790000e+000
         vertex -7.500000e-002 2.598076e-002 0.000000e+000
         vertex -7.928363e-002 2.298133e-002 0.000000e+000
      endloop
   endfacet
   facet normal -5.972114e-001 8.020838e-001 0.000000e+000
      outer loop
         vertex -7.500000e-002 2.598076e-002 2.790000e+000
         vertex -7.928363e-002 2.298133e-002 0.000000e+000
         vertex -7.928363e-002 2.298133e-002 2.790000e+000
      endloop
   endfacet
   facet normal -6.861938e-001 7.274188e-001 0.000000e+000
      outer loop
         vertex -7.928363e-002 2.298133e-002 2.790000e+000
         vertex -7.928363e-002 2.298133e-002 0.000000e+000
         vertex -8.298134e-002 1.928363e-002 0.000000e+000
      endloop
   endfacet
   facet normal -7.274188e-001 6.861938e-001 0.000000e+000
      outer loop
         vertex -7.928363e-002 2.298133e-002 2.790000e+000
         vertex -8.298134e-002 1.928363e-002 0.000000e+000
         vertex -8.298134e-002 1.928363e-002 2.790000e+000
      endloop
   endfacet
   facet normal -8.020838e-001 5.972114e-001 0.000000e+000
      outer loop
         vertex -8.298134e-002 1.928363e-002 2.790000e+000
         vertex -8.298134e-002 1.928363e-002 0.000000e+000
         vertex -8.598077e-002 1.500000e-002 0.000000e+000
      endloop
   endfacet
   facet normal -8.355240e-001 5.494540e-001 0.000000e+000
      outer loop
         vertex -8.298134e-002 1.928363e-002 2.790000e+000
         vertex -8.598077e-002 1.500000e-002 0.000000e+000
         vertex -8.598077e-002 1.500000e-002 2.790000e+000
      endloop
   endfacet
   facet normal -8.936031e-001 4.488580e-001 0.000000e+000
      outer loop
         vertex -8.598077e-002 1.500000e-002 2.790000e+000
         vertex -8.598077e-002 1.500000e-002 0.000000e+000
         vertex -8.819078e-002 1.026060e-002 0.000000e+000
      endloop
   endfacet
   facet normal -9.182422e-001 3.960194e-001 0.000000e+000
      outer loop
         vertex -8.598077e-002 1.500000e-002 2.790000e+000
         vertex -8.819078e-002 1.026060e-002 0.000000e+000
         vertex -8.819078e-002 1.026060e-002 2.790000e+000
      endloop
   endfacet
   facet normal -9.579706e-001 2.868663e-001 0.000000e+000
      outer loop
         vertex -8.819078e-002 1.026060e-002 2.790000e+000
         vertex -8.819078e-002 1.026060e-002 0.000000e+000
         vertex -8.954424e-002 5.209445e-003 0.000000e+000
      endloop
   endfacet
   facet normal -9.730600e-001 2.305519e-001 0.000000e+000
      outer loop
         vertex -8.819078e-002 1.026060e-002 2.790000e+000
         vertex -8.954424e-002 5.209445e-003 0.000000e+000
         vertex -8.954424e-002 5.209445e-003 2.790000e+000
      endloop
   endfacet
   facet normal -9.932307e-001 1.161583e-001 0.000000e+000
      outer loop
         vertex -8.954424e-002 5.209445e-003 2.790000e+000
         vertex -8.954424e-002 5.209445e-003 0.000000e+000
         vertex -9.000000e-002 -7.347881e-018 0.000000e+000
      endloop
   endfacet
   facet normal -9.983119e-001 5.807913e-002 0.000000e+000
      outer loop
         vertex -8.954424e-002 5.209445e-003 2.790000e+000
         vertex -9.000000e-002 -7.347881e-018 0.000000e+000
         vertex -9.000000e-002 -7.347881e-018 2.790000e+000
      endloop
   endfacet
   facet normal -9.983119e-001 -5.807913e-002 0.000000e+000
      outer loop
         vertex -9.000000e-002 -7.347881e-018 2.790000e+000
         vertex -9.000000e-002 -7.347881e-018 0.000000e+000
         vertex -8.954424e-002 -5.209445e-003 0.000000e+000
      endloop
   endfacet
   facet normal -9.932307e-001 -1.161583e-001 0.000000e+000
      outer loop
         vertex -9.000000e-002 -7.347881e-018 2.790000e+000
         vertex -8.954424e-002 -5.209445e-003 0.000000e+000
         vertex -8.954424e-002 -5.209445e-003 2.790000e+000
      endloop
   endfacet
   facet normal -9.730600e-001 -2.305519e-001 0.000000e+000
      outer loop
         vertex -8.954424e-002 -5.209445e-003 2.790000e+000
         vertex -8.954424e-002 -5.209445e-003 0.000000e+000
         vertex -8.819078e-002 -1.026060e-002 0.000000e+000
      endloop
   endfacet
   facet normal -9.579706e-001 -2.868663e-001 0.000000e+000
      outer loop
         vertex -8.954424e-002 -5.209445e-003 2.790000e+000
         vertex -8.819078e-002 -1.026060e-002 0.000000e+000
         vertex -8.819078e-002 -1.026060e-002 2.790000e+000
      endloop
   endfacet
   facet normal -9.182422e-001 -3.960194e-001 0.000000e+000
      outer loop
         vertex -8.819078e-002 -1.026060e-002 2.790000e+000
         vertex -8.819078e-002 -1.026060e-002 0.000000e+000
         vertex -8.598077e-002 -1.500000e-002 0.000000e+000
      endloop
   endfacet
   facet normal -8.936031e-001 -4.488580e-001 0.000000e+000
      outer loop
         vertex -8.819078e-002 -1.026060e-002 2.790000e+000
         vertex -8.598077e-002 -1.500000e-002 0.000000e+000
         vertex -8.598077e-002 -1.500000e-002 2.790000e+000
      endloop
   endfacet
   facet normal -8.355240e-001 -5.494540e-001 0.000000e+000
      outer loop
         vertex -8.598077e-002 -1.500000e-002 2.790000e+000
         vertex -8.598077e-002 -1.500000e-002 0.000000e+000
         vertex -8.298134e-002 -1.928363e-002 0.000000e+000
      endloop
   endfacet
   facet normal -8.020838e-001 -5.972114e-001 0.000000e+000
      outer loop
         vertex -8.598077e-002 -1.500000e-002 2.790000e+000
         vertex -8.298134e-002 -1.928363e-002 0.000000e+000
         vertex -8.298134e-002 -1.928363e-002 2.790000e+000
      endloop
   endfacet
   facet normal -7.274188e-001 -6.861938e-001 0.000000e+000
      outer loop
         vertex -8.298134e-002 -1.928363e-002 2.790000e+000
         vertex -8.298134e-002 -1.928363e-002 0.000000e+000
         vertex -7.928363e-002 -2.298133e-002 0.000000e+000
      endloop
   endfacet
   facet normal -6.861938e-001 -7.274188e-001 0.000000e+000
      outer loop
         vertex -8.298134e-002 -1.928363e-002 2.790000e+000
         vertex -7.928363e-002 -2.298133e-002 0.000000e+000
         vertex -7.928363e-002 -2.298133e-002 2.790000e+000
      endloop
   endfacet
   facet normal -5.972114e-001 -8.020838e-001 0.000000e+000
      outer loop
         vertex -7.928363e-002 -2.298133e-002 2.790000e+000
         vertex -7.928363e-002 -2.298133e-002 0.000000e+000
         vertex -7.500000e-002 -2.598076e-002 0.000000e+000
      endloop
   endfacet
   facet normal -5.494540e-001 -8.355240e-001 0.000000e+000
      outer loop
         vertex -7.928363e-002 -2.298133e-002 2.790000e+000
         vertex -7.500000e-002 -2.598076e-002 0.000000e+000
         vertex -7.500000e-002 -2.598076e-002 2.790000e+000
      endloop
   endfacet
   facet normal -4.488580e-001 -8.936031e-001 0.000000e+000
      outer loop
         vertex -7.500000e-002 -2.598076e-002 2.790000e+000
         vertex -7.500000e-002 -2.598076e-002 0.000000e+000
         vertex -7.026060e-002 -2.819078e-002 0.000000e+000
      endloop
   endfacet
   facet normal -3.960194e-001 -9.182422e-001 0.000000e+000
      outer loop
         vertex -7.500000e-002 -2.598076e-002 2.790000e+000
         vertex -7.026060e-002 -2.819078e-002 0.000000e+000
         vertex -7.026060e-002 -2.819078e-002 2.790000e+000
      endloop
   endfacet
   facet normal -2.868663e-001 -9.579706e-001 0.000000e+000
      outer loop
         vertex -7.026060e-002 -2.819078e-002 2.790000e+000
         vertex -7.026060e-002 -2.819078e-002 0.000000e+000
         vertex -6.520945e-002 -2.954423e-002 0.000000e+000
      endloop
   endfacet
   facet normal -2.305519e-001 -9.730600e-001 0.000000e+000
      outer loop
         vertex -7.026060e-002 -2.819078e-002 2.790000e+000
         vertex -6.520945e-002 -2.954423e-002 0.000000e+000
         vertex -6.520945e-002 -2.954423e-002 2.790000e+000
      endloop
   endfacet
   facet normal -1.161583e-001 -9.932307e-001 0.000000e+000
      outer loop
         vertex -6.520945e-002 -2.954423e-002 2.790000e+000
         vertex -6.520945e-002 -2.954423e-002 0.000000e+000
         vertex -6.000000e-002 -3.000000e-002 0.000000e+000
      endloop
   endfacet
   facet normal -5.807913e-002 -9.983119e-001 0.000000e+000
      outer loop
         vertex -6.520945e-002 -2.954423e-002 2.790000e+000
         vertex -6.000000e-002 -3.000000e-002 0.000000e+000
         vertex -6.000000e-002 -3.000000e-002 2.790000e+000
      endloop
   endfacet
   facet normal 2.489966e-016 -1.000000e+000 0.000000e+000
      outer loop
         vertex -3.000000e-002 -3.000000e-002 2.790000e+000
         vertex -6.000000e-002 -3.000000e-002 2.790000e+000
         vertex -3.000000e-002 -3.000000e-002 0.000000e+000
      endloop
   endfacet
   facet normal 2.489966e-016 -1.000000e+000 0.000000e+000
      outer loop
         vertex -3.000000e-002 -3.000000e-002 0.000000e+000
         vertex -6.000000e-002 -3.000000e-002 2.790000e+000
         vertex -6.000000e-002 -3.000000e-002 0.000000e+000
      endloop
   endfacet
   facet normal -1.000000e+000 0.000000e+000 0.000000e+000
      outer loop
         vertex -3.000000e-002 -6.000000e-002 2.790000e+000
         vertex -3.000000e-002 -3.000000e-002 2.790000e+000
         vertex -3.000000e-002 -6.000000e-002 0.000000e+000
      endloop
   endfacet
   facet normal -1.000000e+000 0.000000e+000 0.000000e+000
      outer loop
         vertex -3.000000e-002 -6.000000e-002 0.000000e+000
         vertex -3.000000e-002 -3.000000e-002 2.790000e+000
         vertex -3.000000e-002 -3.000000e-002 0.000000e+000
      endloop
   endfacet
   facet normal -9.983119e-001 -5.807913e-002 0.000000e+000
      outer loop
         vertex -3.000000e-002 -6.000000e-002 2.790000e+000
         vertex -3.000000e-002 -6.000000e-002 0.000000e+000
         vertex -2.954423e-002 -6.520945e-002 0.000000e+000
      endloop
   endfacet
   facet normal -9.932307e-001 -1.161583e-001 0.000000e+000
      outer loop
         vertex -3.000000e-002 -6.000000e-002 2.790000e+000
         vertex -2.954423e-002 -6.520945e-002 0.000000e+000
         vertex -2.954423e-002 -6.520945e-002 2.790000e+000
      endloop
   endfacet
   facet normal -9.730600e-001 -2.305519e-001 0.000000e+000
      outer loop
         vertex -2.954423e-002 -6.520945e-002 2.790000e+000
         vertex -2.954423e-002 -6.520945e-002 0.000000e+000
         vertex -2.819078e-002 -7.026060e-002 0.000000e+000
      endloop
   endfacet
   facet normal -9.579706e-001 -2.868663e-001 0.000000e+000
      outer loop
         vertex -2.954423e-002 -6.520945e-002 2.790000e+000
         vertex -2.819078e-002 -7.026060e-002 0.000000e+000
         vertex -2.819078e-002 -7.026060e-002 2.790000e+000
      endloop
   endfacet
   facet normal -9.182422e-001 -3.960194e-001 0.000000e+000
      outer loop
         vertex -2.819078e-002 -7.026060e-002 2.790000e+000
         vertex -2.819078e-002 -7.026060e-002 0.000000e+000
         vertex -2.598076e-002 -7.500000e-002 0.000000e+000
      endloop
   endfacet
   facet normal -8.936031e-001 -4.488580e-001 0.000000e+000
      outer loop
         vertex -2.819078e-002 -7.026060e-002 2.790000e+000
         vertex -2.598076e-002 -7.500000e-002 0.000000e+000
         vertex -2.598076e-002 -7.500000e-002 2.790000e+000
      endloop
   endfacet
   facet normal -8.355240e-001 -5.494540e-001 0.000000e+000
      outer loop
         vertex -2.598076e-002 -7.500000e-002 2.790000e+000
         vertex -2.598076e-002 -7.500000e-002 0.000000e+000
         vertex -2.298133e-002 -7.928363e-002 0.000000e+000
      endloop
   endfacet
   facet normal -8.020838e-001 -5.972114e-001 0.000000e+000
      outer loop
         vertex -2.598076e-002 -7.500000e-002 2.790000e+000
         vertex -2.298133e-002 -7.928363e-002 0.000000e+000
         vertex -2.298133e-002 -7.928363e-002 2.790000e+000
      endloop
   endfacet
   facet normal -7.274188e-001 -6.861938e-001 0.000000e+000
      outer loop
         vertex -2.298133e-002 -7.928363e-002 2.790000e+000
         vertex -2.298133e-002 -7.928363e-002 0.000000e+000
         vertex -1.928363e-002 -8.298134e-002 0.000000e+000
      endloop
   endfacet
   facet normal -6.861938e-001 -7.274188e-001 0.000000e+000
      outer loop
         vertex -2.298133e-002 -7.928363e-002 2.790000e+000
         vertex -1.928363e-002 -8.298134e-002 0.000000e+000
         vertex -1.928363e-002 -8.298134e-002 2.790000e+000
      endloop
   endfacet
   facet normal -5.972114e-001 -8.020838e-001 0.000000e+000
      outer loop
         vertex -1.928363e-002 -8.298134e-002 2.790000e+000
         vertex -1.928363e-002 -8.298134e-002 0.000000e+000
         vertex -1.500000e-002 -8.598077e-002 0.000000e+000
      endloop
   endfacet
   facet normal -5.494540e-001 -8.355240e-001 0.000000e+000
      outer loop
         vertex -1.928363e-002 -8.298134e-002 2.790000e+000
         vertex -1.500000e-002 -8.598077e-002 0.000000e+000
         vertex -1.500000e-002 -8.598077e-002 2.790000e+000
      endloop
   endfacet
   facet normal -4.488580e-001 -8.936031e-001 0.000000e+000
      outer loop
         vertex -1.500000e-002 -8.598077e-002 2.790000e+000
         vertex -1.500000e-002 -8.598077e-002 0.000000e+000
         vertex -1.026060e-002 -8.819078e-002 0.000000e+000
      endloop
   endfacet
   facet normal -3.960194e-001 -9.182422e-001 0.000000e+000
      outer loop
         vertex -1.500000e-002 -8.598077e-002 2.790000e+000
         vertex -1.026060e-002 -8.819078e-002 0.000000e+000
         vertex -1.026060e-002 -8.819078e-002 2.790000e+000
      endloop
   endfacet
   facet normal -2.868663e-001 -9.579706e-001 0.000000e+000
      outer loop
         vertex -1.026060e-002 -8.819078e-002 2.790000e+000
         vertex -1.026060e-002 -8.819078e-002 0.000000e+000
         vertex -5.209445e-003 -8.954424e-002 0.000000e+000
      endloop
   endfacet
   facet normal -2.305519e-001 -9.730600e-001 0.000000e+000
      outer loop
         vertex -1.026060e-002 -8.819078e-002 2.790000e+000
         vertex -5.209445e-003 -8.954424e-002 0.000000e+000
         vertex -5.209445e-003 -8.954424e-002 2.790000e+000
      endloop
   endfacet
   facet normal -1.161583e-001 -9.932307e-001 0.000000e+000
      outer loop
         vertex -5.209445e-003 -8.954424e-002 2.790000e+000
         vertex -5.209445e-003 -8.954424e-002 0.000000e+000
         vertex 5.510911e-018 -9.000000e-002 0.000000e+000
      endloop
   endfacet
   facet normal -5.807913e-002 -9.983119e-001 0.000000e+000
      outer loop
         vertex -5.209445e-003 -8.954424e-002 2.790000e+000
         vertex 5.510911e-018 -9.000000e-002 0.000000e+000
         vertex 5.510911e-018 -9.000000e-002 2.790000e+000
      endloop
   endfacet
   facet normal 5.807913e-002 -9.983119e-001 0.000000e+000
      outer loop
         vertex 5.510911e-018 -9.000000e-002 2.790000e+000
         vertex 5.510911e-018 -9.000000e-002 0.000000e+000
         vertex 5.209445e-003 -8.954424e-002 0.000000e+000
      endloop
   endfacet
   facet normal 1.161583e-001 -9.932307e-001 0.000000e+000
      outer loop
         vertex 5.510911e-018 -9.000000e-002 2.790000e+000
         vertex 5.209445e-003 -8.954424e-002 0.000000e+000
         vertex 5.209445e-003 -8.954424e-002 2.790000e+000
      endloop
   endfacet
   facet normal 2.305519e-001 -9.730600e-001 0.000000e+000
      outer loop
         vertex 5.209445e-003 -8.954424e-002 2.790000e+000
         vertex 5.209445e-003 -8.954424e-002 0.000000e+000
         vertex 1.026060e-002 -8.819078e-002 0.000000e+000
      endloop
   endfacet
   facet normal 2.868663e-001 -9.579706e-001 0.000000e+000
      outer loop
         vertex 5.209445e-003 -8.954424e-002 2.790000e+000
         vertex 1.026060e-002 -8.819078e-002 0.000000e+000
         vertex 1.026060e-002 -8.819078e-002 2.790000e+000
      endloop
   endfacet
   facet normal 3.960194e-001 -9.182422e-001 0.000000e+000
      outer loop
         vertex 1.026060e-002 -8.819078e-002 2.790000e+000
         vertex 1.026060e-002 -8.819078e-002 0.000000e+000
         vertex 1.500000e-002 -8.598077e-002 0.000000e+000
      endloop
   endfacet
   facet normal 4.488580e-001 -8.936031e-001 0.000000e+000
      outer loop
         vertex 1.026060e-002 -8.819078e-002 2.790000e+000
         vertex 1.500000e-002 -8.598077e-002 0.000000e+000
         vertex 1.500000e-002 -8.598077e-002 2.790000e+000
      endloop
   endfacet
   facet normal 5.494540e-001 -8.355240e-001 0.000000e+000
      outer loop
         vertex 1.500000e-002 -8.598077e-002 2.790000e+000
         vertex 1.500000e-002 -8.598077e-002 0.000000e+000
         vertex 1.928363e-002 -8.298134e-002 0.000000e+000
      endloop
   endfacet
   facet normal 5.972114e-001 -8.020838e-001 0.000000e+000
      outer loop
         vertex 1.500000e-002 -8.598077e-002 2.790000e+000
         vertex 1.928363e-002 -8.298134e-002 0.000000e+000
         vertex 1.928363e-002 -8.298134e-002 2.790000e+000
      endloop
   endfacet
   facet normal 6.861938e-001 -7.274188e-001 0.000000e+000
      outer loop
         vertex 1.928363e-002 -8.298134e-002 2.790000e+000
         vertex 1.928363e-002 -8.298134e-002 0.000000e+000
         vertex 2.298133e-002 -7.928363e-002 0.000000e+000
      endloop
   endfacet
   facet normal 7.274188e-001 -6.861938e-001 0.000000e+000
      outer loop
         vertex 1.928363e-002 -8.298134e-002 2.790000e+000
         vertex 2.298133e-002 -7.928363e-002 0.000000e+000
         vertex 2.298133e-002 -7.928363e-002 2.790000e+000
      endloop
   endfacet
   facet normal 8.020838e-001 -5.972114e-001 0.000000e+000
      outer loop
         vertex 2.298133e-002 -7.928363e-002 2.790000e+000
         vertex 2.298133e-002 -7.928363e-002 0.000000e+000
         vertex 2.598076e-002 -7.500000e-002 0.000000e+000
      endloop
   endfacet
   facet normal 8.355240e-001 -5.494540e-001 0.000000e+000
      outer loop
         vertex 2.298133e-002 -7.928363e-002 2.790000e+000
         vertex 2.598076e-002 -7.500000e-002 0.000000e+000
         vertex 2.598076e-002 -7.500000e-002 2.790000e+000
      endloop
   endfacet
   facet normal 8.936031e-001 -4.488580e-001 0.000000e+000
      outer loop
         vertex 2.598076e-002 -7.500000e-002 2.790000e+000
         vertex 2.598076e-002 -7.500000e-002 0.000000e+000
         vertex 2.819078e-002 -7.026060e-002 0.000000e+000
      endloop
   endfacet
   facet normal 9.182422e-001 -3.960194e-001 0.000000e+000
      outer loop
         vertex 2.598076e-002 -7.500000e-002 2.790000e+000
         vertex 2.819078e-002 -7.026060e-002 0.000000e+000
         vertex 2.819078e-002 -7.026060e-002 2.790000e+000
      endloop
   endfacet
   facet normal 9.579706e-001 -2.868663e-001 0.000000e+000
      outer loop
         vertex 2.819078e-002 -7.026060e-002 2.790000e+000
         vertex 2.819078e-002 -7.026060e-002 0.000000e+000
         vertex 2.954423e-002 -6.520945e-002 0.000000e+000
      endloop
   endfacet
   facet normal 9.730600e-001 -2.305519e-001 0.000000e+000
      outer loop
         vertex 2.819078e-002 -7.026060e-002 2.790000e+000
         vertex 2.954423e-002 -6.520945e-002 0.000000e+000
         vertex 2.954423e-002 -6.520945e-002 2.790000e+000
      endloop
   endfacet
   facet normal 9.932307e-001 -1.161583e-001 0.000000e+000
      outer loop
         vertex 2.954423e-002 -6.520945e-002 2.790000e+000
         vertex 2.954423e-002 -6.520945e-002 0.000000e+000
         vertex 3.000000e-002 -6.000000e-002 0.000000e+000
      endloop
   endfacet
   facet normal 9.983119e-001 -5.807913e-002 0.000000e+000
      outer loop
         vertex 2.954423e-002 -6.520945e-002 2.790000e+000
         vertex 3.000000e-002 -6.000000e-002 0.000000e+000
         vertex 3.000000e-002 -6.000000e-002 2.790000e+000
      endloop
   endfacet
   facet normal 1.000000e+000 0.000000e+000 0.000000e+000
      outer loop
         vertex 3.000000e-002 -3.000000e-002 2.790000e+000
         vertex 3.000000e-002 -6.000000e-002 2.790000e+000
         vertex 3.000000e-002 -3.000000e-002 0.000000e+000
      endloop
   endfacet
   facet normal 1.000000e+000 0.000000e+000 0.000000e+000
      outer loop
         vertex 3.000000e-002 -3.000000e-002 0.000000e+000
         vertex 3.000000e-002 -6.000000e-002 2.790000e+000
         vertex 3.000000e-002 -6.000000e-002 0.000000e+000
      endloop
   endfacet
   facet normal 2.489966e-016 -1.000000e+000 0.000000e+000
      outer loop
         vertex 6.000000e-002 -3.000000e-002 2.790000e+000
         vertex 3.000000e-002 -3.000000e-002 2.790000e+000
         vertex 6.000000e-002 -3.000000e-002 0.000000e+000
      endloop
   endfacet
   facet normal 2.489966e-016 -1.000000e+000 0.000000e+000
      outer loop
         vertex 6.000000e-002 -3.000000e-002 0.000000e+000
         vertex 3.000000e-002 -3.000000e-002 2.790000e+000
         vertex 3.000000e-002 -3.000000e-002 0.000000e+000
      endloop
   endfacet
   facet normal 5.807913e-002 -9.983119e-001 0.000000e+000
      outer loop
         vertex 6.000000e-002 -3.000000e-002 2.790000e+000
         vertex 6.000000e-002 -3.000000e-002 0.000000e+000
         vertex 6.520945e-002 -2.954423e-002 0.000000e+000
      endloop
   endfacet
   facet normal 1.161583e-001 -9.932307e-001 0.000000e+000
      outer loop
         vertex 6.000000e-002 -3.000000e-002 2.790000e+000
         vertex 6.520945e-002 -2.954423e-002 0.000000e+000
         vertex 6.520945e-002 -2.954423e-002 2.790000e+000
      endloop
   endfacet
   facet normal 2.305519e-001 -9.730600e-001 0.000000e+000
      outer loop
         vertex 6.520945e-002 -2.954423e-002 2.790000e+000
         vertex 6.520945e-002 -2.954423e-002 0.000000e+000
         vertex 7.026060e-002 -2.819078e-002 0.000000e+000
      endloop
   endfacet
   facet normal 2.868663e-001 -9.579706e-001 0.000000e+000
      outer loop
         vertex 6.520945e-002 -2.954423e-002 2.790000e+000
         vertex 7.026060e-002 -2.819078e-002 0.000000e+000
         vertex 7.026060e-002 -2.819078e-002 2.790000e+000
      endloop
   endfacet
   facet normal 3.960194e-001 -9.182422e-001 0.000000e+000
      outer loop
         vertex 7.026060e-002 -2.819078e-002 2.790000e+000
         vertex 7.026060e-002 -2.819078e-002 0.000000e+000
         vertex 7.500000e-002 -2.598076e-002 0.000000e+000
      endloop
   endfacet
   facet normal 4.488580e-001 -8.936031e-001 0.000000e+000
      outer loop
         vertex 7.026060e-002 -2.819078e-002 2.790000e+000
         vertex 7.500000e-002 -2.598076e-002 0.000000e+000
         vertex 7.500000e-002 -2.598076e-002 2.790000e+000
      endloop
   endfacet
   facet normal 5.494540e-001 -8.355240e-001 0.000000e+000
      outer loop
         vertex 7.500000e-002 -2.598076e-002 2.790000e+000
         vertex 7.500000e-002 -2.598076e-002 0.000000e+000
         vertex 7.928363e-002 -2.298133e-002 0.000000e+000
      endloop
   endfacet
   facet normal 5.972114e-001 -8.020838e-001 0.000000e+000
      outer loop
         vertex 7.500000e-002 -2.598076e-002 2.790000e+000
         vertex 7.928363e-002 -2.298133e-002 0.000000e+000
         vertex 7.928363e-002 -2.298133e-002 2.790000e+000
      endloop
   endfacet
   facet normal 6.861938e-001 -7.274188e-001 0.000000e+000
      outer loop
         vertex 7.928363e-002 -2.298133e-002 2.790000e+000
         vertex 7.928363e-002 -2.298133e-002 0.000000e+000
         vertex 8.298134e-002 -1.928363e-002 0.000000e+000
      endloop
   endfacet
   facet normal 7.274188e-001 -6.861938e-001 0.000000e+000
      outer loop
         vertex 7.928363e-002 -2.298133e-002 2.790000e+000
         vertex 8.298134e-002 -1.928363e-002 0.000000e+000
         vertex 8.298134e-002 -1.928363e-002 2.790000e+000
      endloop
   endfacet
   facet normal 8.020838e-001 -5.972114e-001 0.000000e+000
      outer loop
         vertex 8.298134e-002 -1.928363e-002 2.790000e+000
         vertex 8.298134e-002 -1.928363e-002 0.000000e+000
         vertex 8.598077e-002 -1.500000e-002 0.000000e+000
      endloop
   endfacet
   facet normal 8.355240e-001 -5.494540e-001 0.000000e+000
      outer loop
         vertex 8.298134e-002 -1.928363e-002 2.790000e+000
         vertex 8.598077e-002 -1.500000e-002 0.000000e+000
         vertex 8.598077e-002 -1.500000e-002 2.790000e+000
      endloop
   endfacet
   facet normal 8.936031e-001 -4.488580e-001 0.000000e+000
      outer loop
         vertex 8.598077e-002 -1.500000e-002 2.790000e+000
         vertex 8.598077e-002 -1.500000e-002 0.000000e+000
         vertex 8.819078e-002 -1.026060e-002 0.000000e+000
      endloop
   endfacet
   facet normal 9.182422e-001 -3.960194e-001 0.000000e+000
      outer loop
         vertex 8.598077e-002 -1.500000e-002 2.790000e+000
         vertex 8.819078e-002 -1.026060e-002 0.000000e+000
         vertex 8.819078e-002 -1.026060e-002 2.790000e+000
      endloop
   endfacet
   facet normal 9.579706e-001 -2.868663e-001 0.000000e+000
      outer loop
         vertex 8.819078e-002 -1.026060e-002 2.790000e+000
         vertex 8.819078e-002 -1.026060e-002 0.000000e+000
         vertex 8.954424e-002 -5.209445e-003 0.000000e+000
      endloop
   endfacet
   facet normal 9.730600e-001 -2.305519e-001 0.000000e+000
      outer loop
         vertex 8.819078e-002 -1.026060e-002 2.790000e+000
         vertex 8.954424e-002 -5.209445e-003 0.000000e+000
         vertex 8.954424e-002 -5.209445e-003 2.790000e+000
      endloop
   endfacet
   facet normal 9.932307e-001 -1.161583e-001 0.000000e+000
      outer loop
         vertex 8.954424e-002 -5.209445e-003 2.790000e+000
         vertex 8.954424e-002 -5.209445e-003 0.000000e+000
         vertex 9.000000e-002 8.443167e-018 0.000000e+000
      endloop
   endfacet
   facet normal 9.983119e-001 -5.807913e-002 0.000000e+000
      outer loop
         vertex 8.954424e-002 -5.209445e-003 2.790000e+000
         vertex 9.000000e-002 8.443167e-018 0.000000e+000
         vertex 9.000000e-002 8.443167e-018 2.790000e+000
      endloop
   endfacet
   facet normal 9.983119e-001 5.807913e-002 0.000000e+000
      outer loop
         vertex 9.000000e-002 8.443167e-018 2.790000e+000
         vertex 9.000000e-002 8.443167e-018 0.000000e+000
         vertex 8.954424e-002 5.209445e-003 0.000000e+000
      endloop
   endfacet
   facet normal 9.932307e-001 1.161583e-001 0.000000e+000
      outer loop
         vertex 9.000000e-002 8.443167e-018 2.790000e+000
         vertex 8.954424e-002 5.209445e-003 0.000000e+000
         vertex 8.954424e-002 5.209445e-003 2.790000e+000
      endloop
   endfacet
   facet normal 9.730600e-001 2.305519e-001 0.000000e+000
      outer loop
         vertex 8.954424e-002 5.209445e-003 2.790000e+000
         vertex 8.954424e-002 5.209445e-003 0.000000e+000
         vertex 8.819078e-002 1.026060e-002 0.000000e+000
      endloop
   endfacet
   facet normal 9.579706e-001 2.868663e-001 0.000000e+000
      outer loop
         vertex 8.954424e-002 5.209445e-003 2.790000e+000
         vertex 8.819078e-002 1.026060e-002 0.000000e+000
         vertex 8.819078e-002 1.026060e-002 2.790000e+000
      endloop
   endfacet
   facet normal 9.182422e-001 3.960194e-001 0.000000e+000
      outer loop
         vertex 8.819078e-002 1.026060e-002 2.790000e+000
         vertex 8.819078e-002 1.026060e-002 0.000000e+000
         vertex 8.598077e-002 1.500000e-002 0.000000e+000
      endloop
   endfacet
   facet normal 8.936031e-001 4.488580e-001 0.000000e+000
      outer loop
         vertex 8.819078e-002 1.026060e-002 2.790000e+000
         vertex 8.598077e-002 1.500000e-002 0.000000e+000
         vertex 8.598077e-002 1.500000e-002 2.790000e+000
      endloop
   endfacet
   facet normal 8.355240e-001 5.494540e-001 0.000000e+000
      outer loop
         vertex 8.598077e-002 1.500000e-002 2.790000e+000
         vertex 8.598077e-002 1.500000e-002 0.000000e+000
         vertex 8.298134e-002 1.928363e-002 0.000000e+000
      endloop
   endfacet
   facet normal 8.020838e-001 5.972114e-001 0.000000e+000
      outer loop
         vertex 8.598077e-002 1.500000e-002 2.790000e+000
         vertex 8.298134e-002 1.928363e-002 0.000000e+000
         vertex 8.298134e-002 1.928363e-002 2.790000e+000
      endloop
   endfacet
   facet normal 7.274188e-001 6.861938e-001 0.000000e+000
      outer loop
         vertex 8.298134e-002 1.928363e-002 2.790000e+000
         vertex 8.298134e-002 1.928363e-002 0.000000e+000
         vertex 7.928363e-002 2.298133e-002 0.000000e+000
      endloop
   endfacet
   facet normal 6.861938e-001 7.274188e-001 0.000000e+000
      outer loop
         vertex 8.298134e-002 1.928363e-002 2.790000e+000
         vertex 7.928363e-002 2.298133e-002 0.000000e+000
         vertex 7.928363e-002 2.298133e-002 2.790000e+000
      endloop
   endfacet
   facet normal 5.972114e-001 8.020838e-001 0.000000e+000
      outer loop
         vertex 7.928363e-002 2.298133e-002 2.790000e+000
         vertex 7.928363e-002 2.298133e-002 0.000000e+000
         vertex 7.500000e-002 2.598076e-002 0.000000e+000
      endloop
   endfacet
   facet normal 5.494540e-001 8.355240e-001 0.000000e+000
      outer loop
         vertex 7.928363e-002 2.298133e-002 2.790000e+000
         vertex 7.500000e-002 2.598076e-002 0.000000e+000
         vertex 7.500000e-002 2.598076e-002 2.790000e+000
      endloop
   endfacet
   facet normal 4.488580e-001 8.936031e-001 0.000000e+000
      outer loop
         vertex 7.500000e-002 2.598076e-002 2.790000e+000
         vertex 7.500000e-002 2.598076e-002 0.000000e+000
         vertex 7.026060e-002 2.819078e-002 0.000000e+000
      endloop
   endfacet
   facet normal 3.960194e-001 9.182422e-001 0.000000e+000
      outer loop
         vertex 7.500000e-002 2.598076e-002 2.790000e+000
         vertex 7.026060e-002 2.819078e-002 0.000000e+000
         vertex 7.026060e-002 2.819078e-002 2.790000e+000
      endloop
   endfacet
   facet normal 2.868663e-001 9.579706e-001 0.000000e+000
      outer loop
         vertex 7.026060e-002 2.819078e-002 2.790000e+000
         vertex 7.026060e-002 2.819078e-002 0.000000e+000
         vertex 6.520945e-002 2.954423e-002 0.000000e+000
      endloop
   endfacet
   facet normal 2.305519e-001 9.730600e-001 0.000000e+000
      outer loop
         vertex 7.026060e-002 2.819078e-002 2.790000e+000
         vertex 6.520945e-002 2.954423e-002 0.000000e+000
         vertex 6.520945e-002 2.954423e-002 2.790000e+000
      endloop
   endfacet
   facet normal 1.161583e-001 9.932307e-001 0.000000e+000
      outer loop
         vertex 6.520945e-002 2.954423e-002 2.790000e+000
         vertex 6.520945e-002 2.954423e-002 0.000000e+000
         vertex 6.000000e-002 3.000000e-002 0.000000e+000
      endloop
   endfacet
   facet normal 5.807913e-002 9.983119e-001 0.000000e+000
      outer loop
         vertex 6.520945e-002 2.954423e-002 2.790000e+000
         vertex 6.000000e-002 3.000000e-002 0.000000e+000
         vertex 6.000000e-002 3.000000e-002 2.790000e+000
      endloop
   endfacet
   facet normal -2.489966e-016 1.000000e+000 0.000000e+000
      outer loop
         vertex 3.000000e-002 3.000000e-002 2.790000e+000
         vertex 6.000000e-002 3.000000e-002 2.790000e+000
         vertex 3.000000e-002 3.000000e-002 0.000000e+000
      endloop
   endfacet
   facet normal -2.489966e-016 1.000000e+000 0.000000e+000
      outer loop
         vertex 3.000000e-002 3.000000e-002 0.000000e+000
         vertex 6.000000e-002 3.000000e-002 2.790000e+000
         vertex 6.000000e-002 3.000000e-002 0.000000e+000
      endloop
   endfacet
   facet normal 1.000000e+000 0.000000e+000 0.000000e+000
      outer loop
         vertex 3.000000e-002 6.000000e-002 2.790000e+000
         vertex 3.000000e-002 3.000000e-002 2.790000e+000
         vertex 3.000000e-002 6.000000e-002 0.000000e+000
      endloop
   endfacet
   facet normal 1.000000e+000 0.000000e+000 0.000000e+000
      outer loop
         vertex 3.000000e-002 6.000000e-002 0.000000e+000
         vertex 3.000000e-002 3.000000e-002 2.790000e+000
         vertex 3.000000e-002 3.000000e-002 0.000000e+000
      endloop
   endfacet
   facet normal 9.983119e-001 5.807913e-002 0.000000e+000
      outer loop
         vertex 3.000000e-002 6.000000e-002 2.790000e+000
         vertex 3.000000e-002 6.000000e-002 0.000000e+000
         vertex 2.954423e-002 6.520945e-002 0.000000e+000
      endloop
   endfacet
   facet normal 9.932307e-001 1.161583e-001 0.000000e+000
      outer loop
         vertex 3.000000e-002 6.000000e-002 2.790000e+000
         vertex 2.954423e-002 6.520945e-002 0.000000e+000
         vertex 2.954423e-002 6.520945e-002 2.790000e+000
      endloop
   endfacet
   facet normal 9.730600e-001 2.305519e-001 0.000000e+000
      outer loop
         vertex 2.954423e-002 6.520945e-002 2.790000e+000
         vertex 2.954423e-002 6.520945e-002 0.000000e+000
         vertex 2.819078e-002 7.026060e-002 0.000000e+000
      endloop
   endfacet
   facet normal 9.579706e-001 2.868663e-001 0.000000e+000
      outer loop
         vertex 2.954423e-002 6.520945e-002 2.790000e+000
         vertex 2.819078e-002 7.026060e-002 0.000000e+000
         vertex 2.819078e-002 7.026060e-002 2.790000e+000
      endloop
   endfacet
   facet normal 9.182422e-001 3.960194e-001 0.000000e+000
      outer loop
         vertex 2.819078e-002 7.026060e-002 2.790000e+000
         vertex 2.819078e-002 7.026060e-002 0.000000e+000
         vertex 2.598076e-002 7.500000e-002 0.000000e+000
      endloop
   endfacet
   facet normal 8.936031e-001 4.488580e-001 0.000000e+000
      outer loop
         vertex 2.819078e-002 7.026060e-002 2.790000e+000
         vertex 2.598076e-002 7.500000e-002 0.000000e+000
         vertex 2.598076e-002 7.500000e-002 2.790000e+000
      endloop
   endfacet
   facet normal 8.355240e-001 5.494540e-001 0.000000e+000
      outer loop
         vertex 2.598076e-002 7.500000e-002 2.790000e+000
         vertex 2.598076e-002 7.500000e-002 0.000000e+000
         vertex 2.298133e-002 7.928363e-002 0.000000e+000
      endloop
   endfacet
   facet normal 8.020838e-001 5.972114e-001 0.000000e+000
      outer loop
         vertex 2.598076e-002 7.500000e-002 2.790000e+000
         vertex 2.298133e-002 7.928363e-002 0.000000e+000
         vertex 2.298133e-002 7.928363e-002 2.790000e+000
      endloop
   endfacet
   facet normal 7.274188e-001 6.861938e-001 0.000000e+000
      outer loop
         vertex 2.298133e-002 7.928363e-002 2.790000e+000
         vertex 2.298133e-002 7.928363e-002 0.000000e+000
         vertex 1.928363e-002 8.298134e-002 0.000000e+000
      endloop
   endfacet
   facet normal 6.861938e-001 7.274188e-001 0.000000e+000
      outer loop
         vertex 2.298133e-002 7.928363e-002 2.790000e+000
         vertex 1.928363e-002 8.298134e-002 0.000000e+000
         vertex 1.928363e-002 8.298134e-002 2.790000e+000
      endloop
   endfacet
   facet normal 5.972114e-001 8.020838e-001 0.000000e+000
      outer loop
         vertex 1.928363e-002 8.298134e-002 2.790000e+000
         vertex 1.928363e-002 8.298134e-002 0.000000e+000
         vertex 1.500000e-002 8.598077e-002 0.000000e+000
      endloop
   endfacet
   facet normal 5.494540e-001 8.355240e-001 0.000000e+000
      outer loop
         vertex 1.928363e-002 8.298134e-002 2.790000e+000
         vertex 1.500000e-002 8.598077e-002 0.000000e+000
         vertex 1.500000e-002 8.598077e-002 2.790000e+000
      endloop
   endfacet
   facet normal 4.488580e-001 8.936031e-001 0.000000e+000
      outer loop
         vertex 1.500000e-002 8.598077e-002 2.790000e+000
         vertex 1.500000e-002 8.598077e-002 0.000000e+000
         vertex 1.026060e-002 8.819078e-002 0.000000e+000
      endloop
   endfacet
   facet normal 3.960194e-001 9.182422e-001 0.000000e+000
      outer loop
         vertex 1.500000e-002 8.598077e-002 2.790000e+000
         vertex 1.026060e-002 8.819078e-002 0.000000e+000
         vertex 1.026060e-002 8.819078e-002 2.790000e+000
      endloop
   endfacet
   facet normal 2.868663e-001 9.579706e-001 0.000000e+000
      outer loop
         vertex 1.026060e-002 8.819078e-002 2.790000e+000
         vertex 1.026060e-002 8.819078e-002 0.000000e+000
         vertex 5.209445e-003 8.954424e-002 0.000000e+000
      endloop
   endfacet
   facet normal 2.305519e-001 9.730600e-001 0.000000e+000
      outer loop
         vertex 1.026060e-002 8.819078e-002 2.790000e+000
         vertex 5.209445e-003 8.954424e-002 0.000000e+000
         vertex 5.209445e-003 8.954424e-002 2.790000e+000
      endloop
   endfacet
   facet normal 1.161583e-001 9.932307e-001 0.000000e+000
      outer loop
         vertex 5.209445e-003 8.954424e-002 2.790000e+000
         vertex 5.209445e-003 8.954424e-002 0.000000e+000
         vertex 3.231113e-017 9.000000e-002 0.000000e+000
      endloop
   endfacet
   facet normal 5.807913e-002 9.983119e-001 0.000000e+000
      outer loop
         vertex 5.209445e-003 8.954424e-002 2.790000e+000
         vertex 3.231113e-017 9.000000e-002 0.000000e+000
         vertex 3.231113e-017 9.000000e-002 2.790000e+000
      endloop
   endfacet
   facet normal -5.807913e-002 9.983119e-001 0.000000e+000
      outer loop
         vertex 3.231113e-017 9.000000e-002 2.790000e+000
         vertex 3.231113e-017 9.000000e-002 0.000000e+000
         vertex -5.209445e-003 8.954424e-002 0.000000e+000
      endloop
   endfacet
   facet normal -1.161583e-001 9.932307e-001 0.000000e+000
      outer loop
         vertex 3.231113e-017 9.000000e-002 2.790000e+000
         vertex -5.209445e-003 8.954424e-002 0.000000e+000
         vertex -5.209445e-003 8.954424e-002 2.790000e+000
      endloop
   endfacet
   facet normal -2.305519e-001 9.730600e-001 0.000000e+000
      outer loop
         vertex -5.209445e-003 8.954424e-002 2.790000e+000
         vertex -5.209445e-003 8.954424e-002 0.000000e+000
         vertex -1.026060e-002 8.819078e-002 0.000000e+000
      endloop
   endfacet
   facet normal -2.868663e-001 9.579706e-001 0.000000e+000
      outer loop
         vertex -5.209445e-003 8.954424e-002 2.790000e+000
         vertex -1.026060e-002 8.819078e-002 0.000000e+000
         vertex -1.026060e-002 8.819078e-002 2.790000e+000
      endloop
   endfacet
   facet normal -3.960194e-001 9.182422e-001 0.000000e+000
      outer loop
         vertex -1.026060e-002 8.819078e-002 2.790000e+000
         vertex -1.026060e-002 8.819078e-002 0.000000e+000
         vertex -1.500000e-002 8.598077e-002 0.000000e+000
      endloop
   endfacet
   facet normal -4.488580e-001 8.936031e-001 0.000000e+000
      outer loop
         vertex -1.026060e-002 8.819078e-002 2.790000e+000
         vertex -1.500000e-002 8.598077e-002 0.000000e+000
         vertex -1.500000e-002 8.598077e-002 2.790000e+000
      endloop
   endfacet
   facet normal -5.494540e-001 8.355240e-001 0.000000e+000
      outer loop
         vertex -1.500000e-002 8.598077e-002 2.790000e+000
         vertex -1.500000e-002 8.598077e-002 0.000000e+000
         vertex -1.928363e-002 8.298134e-002 0.000000e+000
      endloop
   endfacet
   facet normal -5.972114e-001 8.020838e-001 0.000000e+000
      outer loop
         vertex -1.500000e-002 8.598077e-002 2.790000e+000
         vertex -1.928363e-002 8.298134e-002 0.000000e+000
         vertex -1.928363e-002 8.298134e-002 2.790000e+000
      endloop
   endfacet
   facet normal -6.861938e-001 7.274188e-001 0.000000e+000
      outer loop
         vertex -1.928363e-002 8.298134e-002 2.790000e+000
         vertex -1.928363e-002 8.298134e-002 0.000000e+000
         vertex -2.298133e-002 7.928363e-002 0.000000e+000
      endloop
   endfacet
   facet normal -7.274188e-001 6.861938e-001 0.000000e+000
      outer loop
         vertex -1.928363e-002 8.298134e-002 2.790000e+000
         vertex -2.298133e-002 7.928363e-002 0.000000e+000
         vertex -2.298133e-002 7.928363e-002 2.790000e+000
      endloop
   endfacet
   facet normal -8.020838e-001 5.972114e-001 0.000000e+000
      outer loop
         vertex -2.298133e-002 7.928363e-002 2.790000e+000
         vertex -2.298133e-002 7.928363e-002 0.000000e+000
         vertex -2.598076e-002 7.500000e-002 0.000000e+000
      endloop
   endfacet
   facet normal -8.355240e-001 5.494540e-001 0.000000e+000
      outer loop
         vertex -2.298133e-002 7.928363e-002 2.790000e+000
         vertex -2.598076e-002 7.500000e-002 0.000000e+000
         vertex -2.598076e-002 7.500000e-002 2.790000e+000
      endloop
   endfacet
   facet normal -8.936031e-001 4.488580e-001 0.000000e+000
      outer loop
         vertex -2.598076e-002 7.500000e-002 2.790000e+000
         vertex -2.598076e-002 7.500000e-002 0.000000e+000
         vertex -2.819078e-002 7.026060e-002 0.000000e+000
      endloop
   endfacet
   facet normal -9.182422e-001 3.960194e-001 0.000000e+000
      outer loop
         vertex -2.598076e-002 7.500000e-002 2.790000e+000
         vertex -2.819078e-002 7.026060e-002 0.000000e+000
         vertex -2.819078e-002 7.026060e-002 2.790000e+000
      endloop
   endfacet
   facet normal -9.579706e-001 2.868663e-001 0.000000e+000
      outer loop
         vertex -2.819078e-002 7.026060e-002 2.790000e+000
         vertex -2.819078e-002 7.026060e-002 0.000000e+000
         vertex -2.954423e-002 6.520945e-002 0.000000e+000
      endloop
   endfacet
   facet normal -9.730600e-001 2.305519e-001 0.000000e+000
      outer loop
         vertex -2.819078e-002 7.026060e-002 2.790000e+000
         vertex -2.954423e-002 6.520945e-002 0.000000e+000
         vertex -2.954423e-002 6.520945e-002 2.790000e+000
      endloop
   endfacet
   facet normal -9.932307e-001 1.161583e-001 0.000000e+000
      outer loop
         vertex -2.954423e-002 6.520945e-002 2.790000e+000
         vertex -2.954423e-002 6.520945e-002 0.000000e+000
         vertex -3.000000e-002 6.000000e-002 0.000000e+000
      endloop
   endfacet
   facet normal -9.983119e-001 5.807913e-002 0.000000e+000
      outer loop
         vertex -2.954423e-002 6.520945e-002 2.790000e+000
         vertex -3.000000e-002 6.000000e-002 0.000000e+000
         vertex -3.000000e-002 6.000000e-002 2.790000e+000
      endloop
   endfacet
   facet normal -1.000000e+000 0.000000e+000 0.000000e+000
      outer loop
         vertex -3.000000e-002 3.000000e-002 2.790000e+000
         vertex -3.000000e-002 6.000000e-002 2.790000e+000
         vertex -3.000000e-002 3.000000e-002 0.000000e+000
      endloop
   endfacet
   facet normal -1.000000e+000 0.000000e+000 0.000000e+000
      outer loop
         vertex -3.000000e-002 3.000000e-002 0.000000e+000
         vertex -3.000000e-002 6.000000e-002 2.790000e+000
         vertex -3.000000e-002 6.000000e-002 0.000000e+000
      endloop
   endfacet
   facet normal 0.000000e+000 0.000000e+000 1.000000e+000
      outer loop
         vertex 3.000000e-002 3.000000e-002 2.790000e+000
         vertex 3.000000e-002 -3.000000e-002 2.790000e+000
         vertex 6.000000e-002 3.000000e-002 2.790000e+000
      endloop
   endfacet
   facet normal 0.000000e+000 0.000000e+000 1.000000e+000
      outer loop
         vertex 6.000000e-002 3.000000e-002 2.790000e+000
         vertex 3.000000e-002 -3.000000e-002 2.790000e+000
         vertex 6.000000e-002 -3.000000e-002 2.790000e+000
      endloop
   endfacet
   facet normal 0.000000e+000 0.000000e+000 1.000000e+000
      outer loop
         vertex -3.000000e-002 -3.000000e-002 2.790000e+000
         vertex -3.000000e-002 3.000000e-002 2.790000e+000
         vertex -6.000000e-002 -3.000000e-002 2.790000e+000
      endloop
   endfacet
   facet normal 0.000000e+000 0.000000e+000 1.000000e+000
      outer loop
         vertex -6.000000e-002 -3.000000e-002 2.790000e+000
         vertex -3.000000e-002 3.000000e-002 2.790000e+000
         vertex -6.000000e-002 3.000000e-002 2.790000e+000
      endloop
   endfacet
   facet normal 0.000000e+000 0.000000e+000 1.000000e+000
      outer loop
         vertex -6.000000e-002 -3.000000e-002 2.790000e+000
         vertex -6.000000e-002 3.000000e-002 2.790000e+000
         vertex -6.520945e-002 2.954423e-002 2.790000e+000
      endloop
   endfacet
   facet normal 0.000000e+000 0.000000e+000 1.000000e+000
      outer loop
         vertex -1.928363e-002 -8.298134e-002 2.790000e+000
         vertex -1.500000e-002 -8.598077e-002 2.790000e+000
         vertex 2.954423e-002 -6.520945e-002 2.790000e+000
      endloop
   endfacet
   facet normal 0.000000e+000 0.000000e+000 1.000000e+000
      outer loop
         vertex 2.954423e-002 -6.520945e-002 2.790000e+000
         vertex -1.500000e-002 -8.598077e-002 2.790000e+000
         vertex -1.026060e-002 -8.819078e-002 2.790000e+000
      endloop
   endfacet
   facet normal 0.000000e+000 0.000000e+000 1.000000e+000
      outer loop
         vertex -6.520945e-002 2.954423e-002 2.790000e+000
         vertex -7.026060e-002 2.819078e-002 2.790000e+000
         vertex -6.000000e-002 -3.000000e-002 2.790000e+000
      endloop
   endfacet
   facet normal 0.000000e+000 0.000000e+000 1.000000e+000
      outer loop
         vertex -6.000000e-002 -3.000000e-002 2.790000e+000
         vertex -7.026060e-002 2.819078e-002 2.790000e+000
         vertex -7.500000e-002 2.598076e-002 2.790000e+000
      endloop
   endfacet
   facet normal 0.000000e+000 0.000000e+000 1.000000e+000
      outer loop
         vertex -6.000000e-002 -3.000000e-002 2.790000e+000
         vertex -7.500000e-002 2.598076e-002 2.790000e+000
         vertex -7.928363e-002 2.298133e-002 2.790000e+000
      endloop
   endfacet
   facet normal 0.000000e+000 0.000000e+000 1.000000e+000
      outer loop
         vertex 3.000000e-002 6.000000e-002 2.790000e+000
         vertex -3.000000e-002 6.000000e-002 2.790000e+000
         vertex 3.000000e-002 3.000000e-002 2.790000e+000
      endloop
   endfacet
   facet normal 0.000000e+000 0.000000e+000 1.000000e+000
      outer loop
         vertex 3.000000e-002 3.000000e-002 2.790000e+000
         vertex -3.000000e-002 6.000000e-002 2.790000e+000
         vertex -3.000000e-002 3.000000e-002 2.790000e+000
      endloop
   endfacet
   facet normal 0.000000e+000 0.000000e+000 1.000000e+000
      outer loop
         vertex 3.000000e-002 3.000000e-002 2.790000e+000
         vertex -3.000000e-002 3.000000e-002 2.790000e+000
         vertex 3.000000e-002 -3.000000e-002 2.790000e+000
      endloop
   endfacet
   facet normal 0.000000e+000 0.000000e+000 1.000000e+000
      outer loop
         vertex 3.000000e-002 -3.000000e-002 2.790000e+000
         vertex -3.000000e-002 3.000000e-002 2.790000e+000
         vertex -3.000000e-002 -3.000000e-002 2.790000e+000
      endloop
   endfacet
   facet normal 0.000000e+000 0.000000e+000 1.000000e+000
      outer loop
         vertex 3.000000e-002 -3.000000e-002 2.790000e+000
         vertex -3.000000e-002 -3.000000e-002 2.790000e+000
         vertex 3.000000e-002 -6.000000e-002 2.790000e+000
      endloop
   endfacet
   facet normal 0.000000e+000 0.000000e+000 1.000000e+000
      outer loop
         vertex 3.000000e-002 -6.000000e-002 2.790000e+000
         vertex -3.000000e-002 -3.000000e-002 2.790000e+000
         vertex -3.000000e-002 -6.000000e-002 2.790000e+000
      endloop
   endfacet
   facet normal 0.000000e+000 0.000000e+000 1.000000e+000
      outer loop
         vertex 3.000000e-002 -6.000000e-002 2.790000e+000
         vertex -3.000000e-002 -6.000000e-002 2.790000e+000
         vertex 2.954423e-002 -6.520945e-002 2.790000e+000
      endloop
   endfacet
   facet normal 0.000000e+000 0.000000e+000 1.000000e+000
      outer loop
         vertex 2.954423e-002 -6.520945e-002 2.790000e+000
         vertex -3.000000e-002 -6.000000e-002 2.790000e+000
         vertex -2.954423e-002 -6.520945e-002 2.790000e+000
      endloop
   endfacet
   facet normal 0.000000e+000 0.000000e+000 1.000000e+000
      outer loop
         vertex 2.954423e-002 -6.520945e-002 2.790000e+000
         vertex -2.954423e-002 -6.520945e-002 2.790000e+000
         vertex -2.819078e-002 -7.026060e-002 2.790000e+000
      endloop
   endfacet
   facet normal 0.000000e+000 0.000000e+000 1.000000e+000
      outer loop
         vertex -2.819078e-002 -7.026060e-002 2.790000e+000
         vertex -2.598076e-002 -7.500000e-002 2.790000e+000
         vertex 2.954423e-002 -6.520945e-002 2.790000e+000
      endloop
   endfacet
   facet normal 0.000000e+000 0.000000e+000 1.000000e+000
      outer loop
         vertex 2.954423e-002 -6.520945e-002 2.790000e+000
         vertex -2.598076e-002 -7.500000e-002 2.790000e+000
         vertex -2.298133e-002 -7.928363e-002 2.790000e+000
      endloop
   endfacet
   facet normal 0.000000e+000 0.000000e+000 1.000000e+000
      outer loop
         vertex 2.954423e-002 -6.520945e-002 2.790000e+000
         vertex -2.298133e-002 -7.928363e-002 2.790000e+000
         vertex -1.928363e-002 -8.298134e-002 2.790000e+000
      endloop
   endfacet
   facet normal 0.000000e+000 0.000000e+000 1.000000e+000
      outer loop
         vertex -1.026060e-002 -8.819078e-002 2.790000e+000
         vertex -5.209445e-003 -8.954424e-002 2.790000e+000
         vertex 2.954423e-002 -6.520945e-002 2.790000e+000
      endloop
   endfacet
   facet normal 0.000000e+000 0.000000e+000 1.000000e+000
      outer loop
         vertex 2.954423e-002 -6.520945e-002 2.790000e+000
         vertex -5.209445e-003 -8.954424e-002 2.790000e+000
         vertex 5.510911e-018 -9.000000e-002 2.790000e+000
      endloop
   endfacet
   facet normal 0.000000e+000 0.000000e+000 1.000000e+000
      outer loop
         vertex 2.954423e-002 -6.520945e-002 2.790000e+000
         vertex 5.510911e-018 -9.000000e-002 2.790000e+000
         vertex 2.819078e-002 -7.026060e-002 2.790000e+000
      endloop
   endfacet
   facet normal 0.000000e+000 0.000000e+000 1.000000e+000
      outer loop
         vertex 8.819078e-002 -1.026060e-002 2.790000e+000
         vertex 7.928363e-002 -2.298133e-002 2.790000e+000
         vertex 8.598077e-002 -1.500000e-002 2.790000e+000
      endloop
   endfacet
   facet normal 0.000000e+000 0.000000e+000 1.000000e+000
      outer loop
         vertex 8.598077e-002 -1.500000e-002 2.790000e+000
         vertex 7.928363e-002 -2.298133e-002 2.790000e+000
         vertex 8.298134e-002 -1.928363e-002 2.790000e+000
      endloop
   endfacet
   facet normal 0.000000e+000 0.000000e+000 1.000000e+000
      outer loop
         vertex 7.026060e-002 -2.819078e-002 2.790000e+000
         vertex 7.500000e-002 -2.598076e-002 2.790000e+000
         vertex 9.000000e-002 8.443167e-018 2.790000e+000
      endloop
   endfacet
   facet normal 0.000000e+000 0.000000e+000 1.000000e+000
      outer loop
         vertex 9.000000e-002 8.443167e-018 2.790000e+000
         vertex 7.500000e-002 -2.598076e-002 2.790000e+000
         vertex 7.928363e-002 -2.298133e-002 2.790000e+000
      endloop
   endfacet
   facet normal 0.000000e+000 0.000000e+000 1.000000e+000
      outer loop
         vertex 9.000000e-002 8.443167e-018 2.790000e+000
         vertex 7.928363e-002 -2.298133e-002 2.790000e+000
         vertex 8.954424e-002 -5.209445e-003 2.790000e+000
      endloop
   endfacet
   facet normal 0.000000e+000 0.000000e+000 1.000000e+000
      outer loop
         vertex 8.954424e-002 -5.209445e-003 2.790000e+000
         vertex 7.928363e-002 -2.298133e-002 2.790000e+000
         vertex 8.819078e-002 -1.026060e-002 2.790000e+000
      endloop
   endfacet
   facet normal 0.000000e+000 0.000000e+000 1.000000e+000
      outer loop
         vertex 8.954424e-002 5.209445e-003 2.790000e+000
         vertex 8.819078e-002 1.026060e-002 2.790000e+000
         vertex 6.000000e-002 -3.000000e-002 2.790000e+000
      endloop
   endfacet
   facet normal 0.000000e+000 0.000000e+000 1.000000e+000
      outer loop
         vertex 6.000000e-002 -3.000000e-002 2.790000e+000
         vertex 8.819078e-002 1.026060e-002 2.790000e+000
         vertex 8.598077e-002 1.500000e-002 2.790000e+000
      endloop
   endfacet
   facet normal 0.000000e+000 0.000000e+000 1.000000e+000
      outer loop
         vertex 8.598077e-002 1.500000e-002 2.790000e+000
         vertex 8.298134e-002 1.928363e-002 2.790000e+000
         vertex 6.000000e-002 -3.000000e-002 2.790000e+000
      endloop
   endfacet
   facet normal 0.000000e+000 0.000000e+000 1.000000e+000
      outer loop
         vertex 6.000000e-002 -3.000000e-002 2.790000e+000
         vertex 8.298134e-002 1.928363e-002 2.790000e+000
         vertex 7.928363e-002 2.298133e-002 2.790000e+000
      endloop
   endfacet
   facet normal 0.000000e+000 0.000000e+000 1.000000e+000
      outer loop
         vertex 6.000000e-002 -3.000000e-002 2.790000e+000
         vertex 7.928363e-002 2.298133e-002 2.790000e+000
         vertex 7.500000e-002 2.598076e-002 2.790000e+000
      endloop
   endfacet
   facet normal 0.000000e+000 0.000000e+000 1.000000e+000
      outer loop
         vertex 3.000000e-002 6.000000e-002 2.790000e+000
         vertex 2.954423e-002 6.520945e-002 2.790000e+000
         vertex -3.000000e-002 6.000000e-002 2.790000e+000
      endloop
   endfacet
   facet normal 0.000000e+000 0.000000e+000 1.000000e+000
      outer loop
         vertex -3.000000e-002 6.000000e-002 2.790000e+000
         vertex 2.954423e-002 6.520945e-002 2.790000e+000
         vertex 2.819078e-002 7.026060e-002 2.790000e+000
      endloop
   endfacet
   facet normal 0.000000e+000 0.000000e+000 1.000000e+000
      outer loop
         vertex -3.000000e-002 6.000000e-002 2.790000e+000
         vertex 2.819078e-002 7.026060e-002 2.790000e+000
         vertex 2.598076e-002 7.500000e-002 2.790000e+000
      endloop
   endfacet
   facet normal 0.000000e+000 0.000000e+000 1.000000e+000
      outer loop
         vertex 5.209445e-003 8.954424e-002 2.790000e+000
         vertex -3.000000e-002 6.000000e-002 2.790000e+000
         vertex 1.026060e-002 8.819078e-002 2.790000e+000
      endloop
   endfacet
   facet normal 0.000000e+000 0.000000e+000 1.000000e+000
      outer loop
         vertex 1.026060e-002 8.819078e-002 2.790000e+000
         vertex -3.000000e-002 6.000000e-002 2.790000e+000
         vertex 1.500000e-002 8.598077e-002 2.790000e+000
      endloop
   endfacet
   facet normal 0.000000e+000 0.000000e+000 1.000000e+000
      outer loop
         vertex -7.928363e-002 2.298133e-002 2.790000e+000
         vertex -8.298134e-002 1.928363e-002 2.790000e+000
         vertex -6.000000e-002 -3.000000e-002 2.790000e+000
      endloop
   endfacet
   facet normal 0.000000e+000 0.000000e+000 1.000000e+000
      outer loop
         vertex -6.000000e-002 -3.000000e-002 2.790000e+000
         vertex -8.298134e-002 1.928363e-002 2.790000e+000
         vertex -8.598077e-002 1.500000e-002 2.790000e+000
      endloop
   endfacet
   facet normal 0.000000e+000 0.000000e+000 1.000000e+000
      outer loop
         vertex -6.000000e-002 -3.000000e-002 2.790000e+000
         vertex -8.598077e-002 1.500000e-002 2.790000e+000
         vertex -8.819078e-002 1.026060e-002 2.790000e+000
      endloop
   endfacet
   facet normal 0.000000e+000 0.000000e+000 1.000000e+000
      outer loop
         vertex -8.954424e-002 -5.209445e-003 2.790000e+000
         vertex -8.819078e-002 -1.026060e-002 2.790000e+000
         vertex -7.928363e-002 -2.298133e-002 2.790000e+000
      endloop
   endfacet
   facet normal 0.000000e+000 0.000000e+000 1.000000e+000
      outer loop
         vertex -7.928363e-002 -2.298133e-002 2.790000e+000
         vertex -8.819078e-002 -1.026060e-002 2.790000e+000
         vertex -8.598077e-002 -1.500000e-002 2.790000e+000
      endloop
   endfacet
   facet normal 0.000000e+000 0.000000e+000 1.000000e+000
      outer loop
         vertex -7.928363e-002 -2.298133e-002 2.790000e+000
         vertex -8.598077e-002 -1.500000e-002 2.790000e+000
         vertex -8.298134e-002 -1.928363e-002 2.790000e+000
      endloop
   endfacet
   facet normal 0.000000e+000 0.000000e+000 1.000000e+000
      outer loop
         vertex -8.954424e-002 -5.209445e-003 2.790000e+000
         vertex -7.928363e-002 -2.298133e-002 2.790000e+000
         vertex -9.000000e-002 -7.347881e-018 2.790000e+000
      endloop
   endfacet
   facet normal 0.000000e+000 0.000000e+000 1.000000e+000
      outer loop
         vertex -9.000000e-002 -7.347881e-018 2.790000e+000
         vertex -7.928363e-002 -2.298133e-002 2.790000e+000
         vertex -7.500000e-002 -2.598076e-002 2.790000e+000
      endloop
   endfacet
   facet normal 0.000000e+000 0.000000e+000 1.000000e+000
      outer loop
         vertex -9.000000e-002 -7.347881e-018 2.790000e+000
         vertex -7.500000e-002 -2.598076e-002 2.790000e+000
         vertex -7.026060e-002 -2.819078e-002 2.790000e+000
      endloop
   endfacet
   facet normal 0.000000e+000 0.000000e+000 1.000000e+000
      outer loop
         vertex -8.819078e-002 1.026060e-002 2.790000e+000
         vertex -8.954424e-002 5.209445e-003 2.790000e+000
         vertex -6.000000e-002 -3.000000e-002 2.790000e+000
      endloop
   endfacet
   facet normal 0.000000e+000 0.000000e+000 1.000000e+000
      outer loop
         vertex -6.000000e-002 -3.000000e-002 2.790000e+000
         vertex -8.954424e-002 5.209445e-003 2.790000e+000
         vertex -9.000000e-002 -7.347881e-018 2.790000e+000
      endloop
   endfacet
   facet normal 0.000000e+000 0.000000e+000 1.000000e+000
      outer loop
         vertex -6.000000e-002 -3.000000e-002 2.790000e+000
         vertex -9.000000e-002 -7.347881e-018 2.790000e+000
         vertex -6.520945e-002 -2.954423e-002 2.790000e+000
      endloop
   endfacet
   facet normal 0.000000e+000 0.000000e+000 1.000000e+000
      outer loop
         vertex -6.520945e-002 -2.954423e-002 2.790000e+000
         vertex -9.000000e-002 -7.347881e-018 2.790000e+000
         vertex -7.026060e-002 -2.819078e-002 2.790000e+000
      endloop
   endfacet
   facet normal 0.000000e+000 0.000000e+000 1.000000e+000
      outer loop
         vertex 8.954424e-002 5.209445e-003 2.790000e+000
         vertex 6.000000e-002 -3.000000e-002 2.790000e+000
         vertex 9.000000e-002 8.443167e-018 2.790000e+000
      endloop
   endfacet
   facet normal 0.000000e+000 0.000000e+000 1.000000e+000
      outer loop
         vertex 9.000000e-002 8.443167e-018 2.790000e+000
         vertex 6.000000e-002 -3.000000e-002 2.790000e+000
         vertex 6.520945e-002 -2.954423e-002 2.790000e+000
      endloop
   endfacet
   facet normal 0.000000e+000 0.000000e+000 1.000000e+000
      outer loop
         vertex 9.000000e-002 8.443167e-018 2.790000e+000
         vertex 6.520945e-002 -2.954423e-002 2.790000e+000
         vertex 7.026060e-002 -2.819078e-002 2.790000e+000
      endloop
   endfacet
   facet normal 0.000000e+000 0.000000e+000 1.000000e+000
      outer loop
         vertex 7.500000e-002 2.598076e-002 2.790000e+000
         vertex 7.026060e-002 2.819078e-002 2.790000e+000
         vertex 6.000000e-002 -3.000000e-002 2.790000e+000
      endloop
   endfacet
   facet normal 0.000000e+000 0.000000e+000 1.000000e+000
      outer loop
         vertex 6.000000e-002 -3.000000e-002 2.790000e+000
         vertex 7.026060e-002 2.819078e-002 2.790000e+000
         vertex 6.520945e-002 2.954423e-002 2.790000e+000
      endloop
   endfacet
   facet normal 0.000000e+000 0.000000e+000 1.000000e+000
      outer loop
         vertex 6.000000e-002 -3.000000e-002 2.790000e+000
         vertex 6.520945e-002 2.954423e-002 2.790000e+000
         vertex 6.000000e-002 3.000000e-002 2.790000e+000
      endloop
   endfacet
   facet normal 0.000000e+000 0.000000e+000 1.000000e+000
      outer loop
         vertex 2.598076e-002 7.500000e-002 2.790000e+000
         vertex 2.298133e-002 7.928363e-002 2.790000e+000
         vertex -3.000000e-002 6.000000e-002 2.790000e+000
      endloop
   endfacet
   facet normal 0.000000e+000 0.000000e+000 1.000000e+000
      outer loop
         vertex -3.000000e-002 6.000000e-002 2.790000e+000
         vertex 2.298133e-002 7.928363e-002 2.790000e+000
         vertex 1.928363e-002 8.298134e-002 2.790000e+000
      endloop
   endfacet
   facet normal 0.000000e+000 0.000000e+000 1.000000e+000
      outer loop
         vertex -3.000000e-002 6.000000e-002 2.790000e+000
         vertex 1.928363e-002 8.298134e-002 2.790000e+000
         vertex 1.500000e-002 8.598077e-002 2.790000e+000
      endloop
   endfacet
   facet normal 0.000000e+000 0.000000e+000 1.000000e+000
      outer loop
         vertex 5.209445e-003 8.954424e-002 2.790000e+000
         vertex 3.231113e-017 9.000000e-002 2.790000e+000
         vertex -3.000000e-002 6.000000e-002 2.790000e+000
      endloop
   endfacet
   facet normal 0.000000e+000 0.000000e+000 1.000000e+000
      outer loop
         vertex -3.000000e-002 6.000000e-002 2.790000e+000
         vertex 3.231113e-017 9.000000e-002 2.790000e+000
         vertex -5.209445e-003 8.954424e-002 2.790000e+000
      endloop
   endfacet
   facet normal 0.000000e+000 0.000000e+000 1.000000e+000
      outer loop
         vertex -3.000000e-002 6.000000e-002 2.790000e+000
         vertex -5.209445e-003 8.954424e-002 2.790000e+000
         vertex -1.026060e-002 8.819078e-002 2.790000e+000
      endloop
   endfacet
   facet normal 0.000000e+000 0.000000e+000 1.000000e+000
      outer loop
         vertex -1.026060e-002 8.819078e-002 2.790000e+000
         vertex -1.500000e-002 8.598077e-002 2.790000e+000
         vertex -3.000000e-002 6.000000e-002 2.790000e+000
      endloop
   endfacet
   facet normal 0.000000e+000 0.000000e+000 1.000000e+000
      outer loop
         vertex -3.000000e-002 6.000000e-002 2.790000e+000
         vertex -1.500000e-002 8.598077e-002 2.790000e+000
         vertex -1.928363e-002 8.298134e-002 2.790000e+000
      endloop
   endfacet
   facet normal 0.000000e+000 0.000000e+000 1.000000e+000
      outer loop
         vertex -3.000000e-002 6.000000e-002 2.790000e+000
         vertex -1.928363e-002 8.298134e-002 2.790000e+000
         vertex -2.298133e-002 7.928363e-002 2.790000e+000
      endloop
   endfacet
   facet normal 0.000000e+000 0.000000e+000 1.000000e+000
      outer loop
         vertex 1.928363e-002 -8.298134e-002 2.790000e+000
         vertex 2.298133e-002 -7.928363e-002 2.790000e+000
         vertex 1.500000e-002 -8.598077e-002 2.790000e+000
      endloop
   endfacet
   facet normal 0.000000e+000 0.000000e+000 1.000000e+000
      outer loop
         vertex 1.500000e-002 -8.598077e-002 2.790000e+000
         vertex 2.298133e-002 -7.928363e-002 2.790000e+000
         vertex 1.026060e-002 -8.819078e-002 2.790000e+000
      endloop
   endfacet
   facet normal 0.000000e+000 0.000000e+000 1.000000e+000
      outer loop
         vertex 5.510911e-018 -9.000000e-002 2.790000e+000
         vertex 5.209445e-003 -8.954424e-002 2.790000e+000
         vertex 2.819078e-002 -7.026060e-002 2.790000e+000
      endloop
   endfacet
   facet normal 0.000000e+000 0.000000e+000 1.000000e+000
      outer loop
         vertex 2.819078e-002 -7.026060e-002 2.790000e+000
         vertex 5.209445e-003 -8.954424e-002 2.790000e+000
         vertex 1.026060e-002 -8.819078e-002 2.790000e+000
      endloop
   endfacet
   facet normal 0.000000e+000 0.000000e+000 1.000000e+000
      outer loop
         vertex 2.819078e-002 -7.026060e-002 2.790000e+000
         vertex 1.026060e-002 -8.819078e-002 2.790000e+000
         vertex 2.598076e-002 -7.500000e-002 2.790000e+000
      endloop
   endfacet
   facet normal 0.000000e+000 0.000000e+000 1.000000e+000
      outer loop
         vertex 2.598076e-002 -7.500000e-002 2.790000e+000
         vertex 1.026060e-002 -8.819078e-002 2.790000e+000
         vertex 2.298133e-002 -7.928363e-002 2.790000e+000
      endloop
   endfacet
   facet normal 0.000000e+000 0.000000e+000 1.000000e+000
      outer loop
         vertex -2.298133e-002 7.928363e-002 2.790000e+000
         vertex -2.598076e-002 7.500000e-002 2.790000e+000
         vertex -3.000000e-002 6.000000e-002 2.790000e+000
      endloop
   endfacet
   facet normal 0.000000e+000 0.000000e+000 1.000000e+000
      outer loop
         vertex -3.000000e-002 6.000000e-002 2.790000e+000
         vertex -2.598076e-002 7.500000e-002 2.790000e+000
         vertex -2.819078e-002 7.026060e-002 2.790000e+000
      endloop
   endfacet
   facet normal 0.000000e+000 0.000000e+000 1.000000e+000
      outer loop
         vertex -3.000000e-002 6.000000e-002 2.790000e+000
         vertex -2.819078e-002 7.026060e-002 2.790000e+000
         vertex -2.954423e-002 6.520945e-002 2.790000e+000
      endloop
   endfacet
   facet normal 0.000000e+000 0.000000e+000 -1.000000e+000
      outer loop
         vertex -2.298133e-002 7.928363e-002 0.000000e+000
         vertex -1.928363e-002 8.298134e-002 0.000000e+000
         vertex -1.500000e-002 8.598077e-002 0.000000e+000
      endloop
   endfacet
   facet normal 0.000000e+000 0.000000e+000 -1.000000e+000
      outer loop
         vertex -3.000000e-002 -3.000000e-002 0.000000e+000
         vertex 3.000000e-002 -3.000000e-002 0.000000e+000
         vertex -3.000000e-002 -6.000000e-002 0.000000e+000
      endloop
   endfacet
   facet normal 0.000000e+000 0.000000e+000 -1.000000e+000
      outer loop
         vertex -3.000000e-002 -6.000000e-002 0.000000e+000
         vertex 3.000000e-002 -3.000000e-002 0.000000e+000
         vertex 3.000000e-002 -6.000000e-002 0.000000e+000
      endloop
   endfacet
   facet normal 0.000000e+000 0.000000e+000 -1.000000e+000
      outer loop
         vertex -3.000000e-002 -6.000000e-002 0.000000e+000
         vertex 3.000000e-002 -6.000000e-002 0.000000e+000
         vertex 2.954423e-002 -6.520945e-002 0.000000e+000
      endloop
   endfacet
   facet normal 0.000000e+000 0.000000e+000 -1.000000e+000
      outer loop
         vertex -5.209445e-003 -8.954424e-002 0.000000e+000
         vertex -1.026060e-002 -8.819078e-002 0.000000e+000
         vertex -3.000000e-002 -6.000000e-002 0.000000e+000
      endloop
   endfacet
   facet normal 0.000000e+000 0.000000e+000 -1.000000e+000
      outer loop
         vertex 2.954423e-002 -6.520945e-002 0.000000e+000
         vertex 2.819078e-002 -7.026060e-002 0.000000e+000
         vertex -3.000000e-002 -6.000000e-002 0.000000e+000
      endloop
   endfacet
   facet normal 0.000000e+000 0.000000e+000 -1.000000e+000
      outer loop
         vertex -3.000000e-002 -6.000000e-002 0.000000e+000
         vertex 2.819078e-002 -7.026060e-002 0.000000e+000
         vertex 2.598076e-002 -7.500000e-002 0.000000e+000
      endloop
   endfacet
   facet normal 0.000000e+000 0.000000e+000 -1.000000e+000
      outer loop
         vertex -3.000000e-002 -6.000000e-002 0.000000e+000
         vertex 2.598076e-002 -7.500000e-002 0.000000e+000
         vertex 2.298133e-002 -7.928363e-002 0.000000e+000
      endloop
   endfacet
   facet normal 0.000000e+000 0.000000e+000 -1.000000e+000
      outer loop
         vertex -1.026060e-002 -8.819078e-002 0.000000e+000
         vertex -1.500000e-002 -8.598077e-002 0.000000e+000
         vertex -3.000000e-002 -6.000000e-002 0.000000e+000
      endloop
   endfacet
   facet normal 0.000000e+000 0.000000e+000 -1.000000e+000
      outer loop
         vertex -3.000000e-002 -6.000000e-002 0.000000e+000
         vertex -1.500000e-002 -8.598077e-002 0.000000e+000
         vertex -1.928363e-002 -8.298134e-002 0.000000e+000
      endloop
   endfacet
   facet normal 0.000000e+000 0.000000e+000 -1.000000e+000
      outer loop
         vertex -3.000000e-002 -6.000000e-002 0.000000e+000
         vertex -1.928363e-002 -8.298134e-002 0.000000e+000
         vertex -2.298133e-002 -7.928363e-002 0.000000e+000
      endloop
   endfacet
   facet normal 0.000000e+000 0.000000e+000 -1.000000e+000
      outer loop
         vertex -7.928363e-002 2.298133e-002 0.000000e+000
         vertex -7.500000e-002 2.598076e-002 0.000000e+000
         vertex -6.000000e-002 -3.000000e-002 0.000000e+000
      endloop
   endfacet
   facet normal 0.000000e+000 0.000000e+000 -1.000000e+000
      outer loop
         vertex -6.000000e-002 -3.000000e-002 0.000000e+000
         vertex -7.500000e-002 2.598076e-002 0.000000e+000
         vertex -7.026060e-002 2.819078e-002 0.000000e+000
      endloop
   endfacet
   facet normal 0.000000e+000 0.000000e+000 -1.000000e+000
      outer loop
         vertex -5.209445e-003 8.954424e-002 0.000000e+000
         vertex 3.231113e-017 9.000000e-002 0.000000e+000
         vertex -3.000000e-002 6.000000e-002 0.000000e+000
      endloop
   endfacet
   facet normal 0.000000e+000 0.000000e+000 -1.000000e+000
      outer loop
         vertex -3.000000e-002 6.000000e-002 0.000000e+000
         vertex 3.231113e-017 9.000000e-002 0.000000e+000
         vertex 5.209445e-003 8.954424e-002 0.000000e+000
      endloop
   endfacet
   facet normal 0.000000e+000 0.000000e+000 -1.000000e+000
      outer loop
         vertex 3.000000e-002 3.000000e-002 0.000000e+000
         vertex -3.000000e-002 3.000000e-002 0.000000e+000
         vertex 3.000000e-002 6.000000e-002 0.000000e+000
      endloop
   endfacet
   facet normal 0.000000e+000 0.000000e+000 -1.000000e+000
      outer loop
         vertex 3.000000e-002 6.000000e-002 0.000000e+000
         vertex -3.000000e-002 3.000000e-002 0.000000e+000
         vertex -3.000000e-002 6.000000e-002 0.000000e+000
      endloop
   endfacet
   facet normal 0.000000e+000 0.000000e+000 -1.000000e+000
      outer loop
         vertex 3.000000e-002 6.000000e-002 0.000000e+000
         vertex -3.000000e-002 6.000000e-002 0.000000e+000
         vertex 2.954423e-002 6.520945e-002 0.000000e+000
      endloop
   endfacet
   facet normal 0.000000e+000 0.000000e+000 -1.000000e+000
      outer loop
         vertex 2.954423e-002 6.520945e-002 0.000000e+000
         vertex -3.000000e-002 6.000000e-002 0.000000e+000
         vertex 2.819078e-002 7.026060e-002 0.000000e+000
      endloop
   endfacet
   facet normal 0.000000e+000 0.000000e+000 -1.000000e+000
      outer loop
         vertex 7.026060e-002 2.819078e-002 0.000000e+000
         vertex 7.500000e-002 2.598076e-002 0.000000e+000
         vertex 7.928363e-002 2.298133e-002 0.000000e+000
      endloop
   endfacet
   facet normal 0.000000e+000 0.000000e+000 -1.000000e+000
      outer loop
         vertex 1.026060e-002 -8.819078e-002 0.000000e+000
         vertex 5.209445e-003 -8.954424e-002 0.000000e+000
         vertex -3.000000e-002 -6.000000e-002 0.000000e+000
      endloop
   endfacet
   facet normal 0.000000e+000 0.000000e+000 -1.000000e+000
      outer loop
         vertex -3.000000e-002 -6.000000e-002 0.000000e+000
         vertex 5.209445e-003 -8.954424e-002 0.000000e+000
         vertex 5.510911e-018 -9.000000e-002 0.000000e+000
      endloop
   endfacet
   facet normal 0.000000e+000 0.000000e+000 -1.000000e+000
      outer loop
         vertex -3.000000e-002 -6.000000e-002 0.000000e+000
         vertex 5.510911e-018 -9.000000e-002 0.000000e+000
         vertex -5.209445e-003 -8.954424e-002 0.000000e+000
      endloop
   endfacet
   facet normal 0.000000e+000 0.000000e+000 -1.000000e+000
      outer loop
         vertex -2.298133e-002 -7.928363e-002 0.000000e+000
         vertex -2.598076e-002 -7.500000e-002 0.000000e+000
         vertex -3.000000e-002 -6.000000e-002 0.000000e+000
      endloop
   endfacet
   facet normal 0.000000e+000 0.000000e+000 -1.000000e+000
      outer loop
         vertex -3.000000e-002 -6.000000e-002 0.000000e+000
         vertex -2.598076e-002 -7.500000e-002 0.000000e+000
         vertex -2.819078e-002 -7.026060e-002 0.000000e+000
      endloop
   endfacet
   facet normal 0.000000e+000 0.000000e+000 -1.000000e+000
      outer loop
         vertex -3.000000e-002 -6.000000e-002 0.000000e+000
         vertex -2.819078e-002 -7.026060e-002 0.000000e+000
         vertex -2.954423e-002 -6.520945e-002 0.000000e+000
      endloop
   endfacet
   facet normal 0.000000e+000 0.000000e+000 -1.000000e+000
      outer loop
         vertex -6.520945e-002 -2.954423e-002 0.000000e+000
         vertex -7.026060e-002 -2.819078e-002 0.000000e+000
         vertex -9.000000e-002 -7.347881e-018 0.000000e+000
      endloop
   endfacet
   facet normal 0.000000e+000 0.000000e+000 -1.000000e+000
      outer loop
         vertex -8.819078e-002 1.026060e-002 0.000000e+000
         vertex -8.598077e-002 1.500000e-002 0.000000e+000
         vertex -6.000000e-002 -3.000000e-002 0.000000e+000
      endloop
   endfacet
   facet normal 0.000000e+000 0.000000e+000 -1.000000e+000
      outer loop
         vertex -6.000000e-002 -3.000000e-002 0.000000e+000
         vertex -8.598077e-002 1.500000e-002 0.000000e+000
         vertex -8.298134e-002 1.928363e-002 0.000000e+000
      endloop
   endfacet
   facet normal 0.000000e+000 0.000000e+000 -1.000000e+000
      outer loop
         vertex -6.000000e-002 -3.000000e-002 0.000000e+000
         vertex -8.298134e-002 1.928363e-002 0.000000e+000
         vertex -7.928363e-002 2.298133e-002 0.000000e+000
      endloop
   endfacet
   facet normal 0.000000e+000 0.000000e+000 -1.000000e+000
      outer loop
         vertex -2.954423e-002 6.520945e-002 0.000000e+000
         vertex -2.819078e-002 7.026060e-002 0.000000e+000
         vertex -1.500000e-002 8.598077e-002 0.000000e+000
      endloop
   endfacet
   facet normal 0.000000e+000 0.000000e+000 -1.000000e+000
      outer loop
         vertex -1.500000e-002 8.598077e-002 0.000000e+000
         vertex -2.819078e-002 7.026060e-002 0.000000e+000
         vertex -2.598076e-002 7.500000e-002 0.000000e+000
      endloop
   endfacet
   facet normal 0.000000e+000 0.000000e+000 -1.000000e+000
      outer loop
         vertex -1.500000e-002 8.598077e-002 0.000000e+000
         vertex -2.598076e-002 7.500000e-002 0.000000e+000
         vertex -2.298133e-002 7.928363e-002 0.000000e+000
      endloop
   endfacet
   facet normal 0.000000e+000 0.000000e+000 -1.000000e+000
      outer loop
         vertex -2.954423e-002 6.520945e-002 0.000000e+000
         vertex -1.500000e-002 8.598077e-002 0.000000e+000
         vertex -3.000000e-002 6.000000e-002 0.000000e+000
      endloop
   endfacet
   facet normal 0.000000e+000 0.000000e+000 -1.000000e+000
      outer loop
         vertex -3.000000e-002 6.000000e-002 0.000000e+000
         vertex -1.500000e-002 8.598077e-002 0.000000e+000
         vertex -1.026060e-002 8.819078e-002 0.000000e+000
      endloop
   endfacet
   facet normal 0.000000e+000 0.000000e+000 -1.000000e+000
      outer loop
         vertex -3.000000e-002 6.000000e-002 0.000000e+000
         vertex -1.026060e-002 8.819078e-002 0.000000e+000
         vertex -5.209445e-003 8.954424e-002 0.000000e+000
      endloop
   endfacet
   facet normal 0.000000e+000 0.000000e+000 -1.000000e+000
      outer loop
         vertex 5.209445e-003 8.954424e-002 0.000000e+000
         vertex 1.026060e-002 8.819078e-002 0.000000e+000
         vertex -3.000000e-002 6.000000e-002 0.000000e+000
      endloop
   endfacet
   facet normal 0.000000e+000 0.000000e+000 -1.000000e+000
      outer loop
         vertex -3.000000e-002 6.000000e-002 0.000000e+000
         vertex 1.026060e-002 8.819078e-002 0.000000e+000
         vertex 1.500000e-002 8.598077e-002 0.000000e+000
      endloop
   endfacet
   facet normal 0.000000e+000 0.000000e+000 -1.000000e+000
      outer loop
         vertex -3.000000e-002 6.000000e-002 0.000000e+000
         vertex 1.500000e-002 8.598077e-002 0.000000e+000
         vertex 1.928363e-002 8.298134e-002 0.000000e+000
      endloop
   endfacet
   facet normal 0.000000e+000 0.000000e+000 -1.000000e+000
      outer loop
         vertex 1.928363e-002 8.298134e-002 0.000000e+000
         vertex 2.298133e-002 7.928363e-002 0.000000e+000
         vertex -3.000000e-002 6.000000e-002 0.000000e+000
      endloop
   endfacet
   facet normal 0.000000e+000 0.000000e+000 -1.000000e+000
      outer loop
         vertex -3.000000e-002 6.000000e-002 0.000000e+000
         vertex 2.298133e-002 7.928363e-002 0.000000e+000
         vertex 2.598076e-002 7.500000e-002 0.000000e+000
      endloop
   endfacet
   facet normal 0.000000e+000 0.000000e+000 -1.000000e+000
      outer loop
         vertex -3.000000e-002 6.000000e-002 0.000000e+000
         vertex 2.598076e-002 7.500000e-002 0.000000e+000
         vertex 2.819078e-002 7.026060e-002 0.000000e+000
      endloop
   endfacet
   facet normal 0.000000e+000 0.000000e+000 -1.000000e+000
      outer loop
         vertex 8.819078e-002 1.026060e-002 0.000000e+000
         vertex 6.000000e-002 3.000000e-002 0.000000e+000
         vertex 8.598077e-002 1.500000e-002 0.000000e+000
      endloop
   endfacet
   facet normal 0.000000e+000 0.000000e+000 -1.000000e+000
      outer loop
         vertex 8.598077e-002 1.500000e-002 0.000000e+000
         vertex 6.000000e-002 3.000000e-002 0.000000e+000
         vertex 8.298134e-002 1.928363e-002 0.000000e+000
      endloop
   endfacet
   facet normal 0.000000e+000 0.000000e+000 -1.000000e+000
      outer loop
         vertex 8.819078e-002 1.026060e-002 0.000000e+000
         vertex 8.954424e-002 5.209445e-003 0.000000e+000
         vertex 6.000000e-002 3.000000e-002 0.000000e+000
      endloop
   endfacet
   facet normal 0.000000e+000 0.000000e+000 -1.000000e+000
      outer loop
         vertex 6.000000e-002 3.000000e-002 0.000000e+000
         vertex 8.954424e-002 5.209445e-003 0.000000e+000
         vertex 9.000000e-002 8.443167e-018 0.000000e+000
      endloop
   endfacet
   facet normal 0.000000e+000 0.000000e+000 -1.000000e+000
      outer loop
         vertex 6.000000e-002 3.000000e-002 0.000000e+000
         vertex 9.000000e-002 8.443167e-018 0.000000e+000
         vertex 8.954424e-002 -5.209445e-003 0.000000e+000
      endloop
   endfacet
   facet normal 0.000000e+000 0.000000e+000 -1.000000e+000
      outer loop
         vertex 2.298133e-002 -7.928363e-002 0.000000e+000
         vertex 1.928363e-002 -8.298134e-002 0.000000e+000
         vertex -3.000000e-002 -6.000000e-002 0.000000e+000
      endloop
   endfacet
   facet normal 0.000000e+000 0.000000e+000 -1.000000e+000
      outer loop
         vertex -3.000000e-002 -6.000000e-002 0.000000e+000
         vertex 1.928363e-002 -8.298134e-002 0.000000e+000
         vertex 1.500000e-002 -8.598077e-002 0.000000e+000
      endloop
   endfacet
   facet normal 0.000000e+000 0.000000e+000 -1.000000e+000
      outer loop
         vertex -3.000000e-002 -6.000000e-002 0.000000e+000
         vertex 1.500000e-002 -8.598077e-002 0.000000e+000
         vertex 1.026060e-002 -8.819078e-002 0.000000e+000
      endloop
   endfacet
   facet normal 0.000000e+000 0.000000e+000 -1.000000e+000
      outer loop
         vertex -7.026060e-002 -2.819078e-002 0.000000e+000
         vertex -7.500000e-002 -2.598076e-002 0.000000e+000
         vertex -9.000000e-002 -7.347881e-018 0.000000e+000
      endloop
   endfacet
   facet normal 0.000000e+000 0.000000e+000 -1.000000e+000
      outer loop
         vertex -9.000000e-002 -7.347881e-018 0.000000e+000
         vertex -7.500000e-002 -2.598076e-002 0.000000e+000
         vertex -7.928363e-002 -2.298133e-002 0.000000e+000
      endloop
   endfacet
   facet normal 0.000000e+000 0.000000e+000 -1.000000e+000
      outer loop
         vertex -9.000000e-002 -7.347881e-018 0.000000e+000
         vertex -7.928363e-002 -2.298133e-002 0.000000e+000
         vertex -8.298134e-002 -1.928363e-002 0.000000e+000
      endloop
   endfacet
   facet normal 0.000000e+000 0.000000e+000 -1.000000e+000
      outer loop
         vertex -8.298134e-002 -1.928363e-002 0.000000e+000
         vertex -8.598077e-002 -1.500000e-002 0.000000e+000
         vertex -9.000000e-002 -7.347881e-018 0.000000e+000
      endloop
   endfacet
   facet normal 0.000000e+000 0.000000e+000 -1.000000e+000
      outer loop
         vertex -9.000000e-002 -7.347881e-018 0.000000e+000
         vertex -8.598077e-002 -1.500000e-002 0.000000e+000
         vertex -8.819078e-002 -1.026060e-002 0.000000e+000
      endloop
   endfacet
   facet normal 0.000000e+000 0.000000e+000 -1.000000e+000
      outer loop
         vertex -9.000000e-002 -7.347881e-018 0.000000e+000
         vertex -8.819078e-002 -1.026060e-002 0.000000e+000
         vertex -8.954424e-002 -5.209445e-003 0.000000e+000
      endloop
   endfacet
   facet normal 0.000000e+000 0.000000e+000 -1.000000e+000
      outer loop
         vertex -6.520945e-002 -2.954423e-002 0.000000e+000
         vertex -9.000000e-002 -7.347881e-018 0.000000e+000
         vertex -6.000000e-002 -3.000000e-002 0.000000e+000
      endloop
   endfacet
   facet normal 0.000000e+000 0.000000e+000 -1.000000e+000
      outer loop
         vertex -6.000000e-002 -3.000000e-002 0.000000e+000
         vertex -9.000000e-002 -7.347881e-018 0.000000e+000
         vertex -8.954424e-002 5.209445e-003 0.000000e+000
      endloop
   endfacet
   facet normal 0.000000e+000 0.000000e+000 -1.000000e+000
      outer loop
         vertex -6.000000e-002 -3.000000e-002 0.000000e+000
         vertex -8.954424e-002 5.209445e-003 0.000000e+000
         vertex -8.819078e-002 1.026060e-002 0.000000e+000
      endloop
   endfacet
   facet normal 0.000000e+000 0.000000e+000 -1.000000e+000
      outer loop
         vertex 8.298134e-002 1.928363e-002 0.000000e+000
         vertex 6.000000e-002 3.000000e-002 0.000000e+000
         vertex 7.928363e-002 2.298133e-002 0.000000e+000
      endloop
   endfacet
   facet normal 0.000000e+000 0.000000e+000 -1.000000e+000
      outer loop
         vertex 7.928363e-002 2.298133e-002 0.000000e+000
         vertex 6.000000e-002 3.000000e-002 0.000000e+000
         vertex 6.520945e-002 2.954423e-002 0.000000e+000
      endloop
   endfacet
   facet normal 0.000000e+000 0.000000e+000 -1.000000e+000
      outer loop
         vertex 7.928363e-002 2.298133e-002 0.000000e+000
         vertex 6.520945e-002 2.954423e-002 0.000000e+000
         vertex 7.026060e-002 2.819078e-002 0.000000e+000
      endloop
   endfacet
   facet normal 0.000000e+000 0.000000e+000 -1.000000e+000
      outer loop
         vertex 8.954424e-002 -5.209445e-003 0.000000e+000
         vertex 8.819078e-002 -1.026060e-002 0.000000e+000
         vertex 6.000000e-002 3.000000e-002 0.000000e+000
      endloop
   endfacet
   facet normal 0.000000e+000 0.000000e+000 -1.000000e+000
      outer loop
         vertex 6.000000e-002 3.000000e-002 0.000000e+000
         vertex 8.819078e-002 -1.026060e-002 0.000000e+000
         vertex 8.598077e-002 -1.500000e-002 0.000000e+000
      endloop
   endfacet
   facet normal 0.000000e+000 0.000000e+000 -1.000000e+000
      outer loop
         vertex 6.000000e-002 3.000000e-002 0.000000e+000
         vertex 8.598077e-002 -1.500000e-002 0.000000e+000
         vertex 8.298134e-002 -1.928363e-002 0.000000e+000
      endloop
   endfacet
   facet normal 0.000000e+000 0.000000e+000 -1.000000e+000
      outer loop
         vertex 8.298134e-002 -1.928363e-002 0.000000e+000
         vertex 7.928363e-002 -2.298133e-002 0.000000e+000
         vertex 6.000000e-002 3.000000e-002 0.000000e+000
      endloop
   endfacet
   facet normal 0.000000e+000 0.000000e+000 -1.000000e+000
      outer loop
         vertex 6.000000e-002 3.000000e-002 0.000000e+000
         vertex 7.928363e-002 -2.298133e-002 0.000000e+000
         vertex 7.500000e-002 -2.598076e-002 0.000000e+000
      endloop
   endfacet
   facet normal 0.000000e+000 0.000000e+000 -1.000000e+000
      outer loop
         vertex 6.000000e-002 3.000000e-002 0.000000e+000
         vertex 7.500000e-002 -2.598076e-002 0.000000e+000
         vertex 7.026060e-002 -2.819078e-002 0.000000e+000
      endloop
   endfacet
   facet normal 0.000000e+000 0.000000e+000 -1.000000e+000
      outer loop
         vertex -7.026060e-002 2.819078e-002 0.000000e+000
         vertex -6.520945e-002 2.954423e-002 0.000000e+000
         vertex -6.000000e-002 -3.000000e-002 0.000000e+000
      endloop
   endfacet
   facet normal 0.000000e+000 0.000000e+000 -1.000000e+000
      outer loop
         vertex -6.000000e-002 -3.000000e-002 0.000000e+000
         vertex -6.520945e-002 2.954423e-002 0.000000e+000
         vertex -6.000000e-002 3.000000e-002 0.000000e+000
      endloop
   endfacet
   facet normal 0.000000e+000 0.000000e+000 -1.000000e+000
      outer loop
         vertex -6.000000e-002 -3.000000e-002 0.000000e+000
         vertex -6.000000e-002 3.000000e-002 0.000000e+000
         vertex -3.000000e-002 -3.000000e-002 0.000000e+000
      endloop
   endfacet
   facet normal 0.000000e+000 0.000000e+000 -1.000000e+000
      outer loop
         vertex -3.000000e-002 -3.000000e-002 0.000000e+000
         vertex -6.000000e-002 3.000000e-002 0.000000e+000
         vertex -3.000000e-002 3.000000e-002 0.000000e+000
      endloop
   endfacet
   facet normal 0.000000e+000 0.000000e+000 -1.000000e+000
      outer loop
         vertex -3.000000e-002 -3.000000e-002 0.000000e+000
         vertex -3.000000e-002 3.000000e-002 0.000000e+000
         vertex 3.000000e-002 -3.000000e-002 0.000000e+000
      endloop
   endfacet
   facet normal 0.000000e+000 0.000000e+000 -1.000000e+000
      outer loop
         vertex 3.000000e-002 -3.000000e-002 0.000000e+000
         vertex -3.000000e-002 3.000000e-002 0.000000e+000
         vertex 3.000000e-002 3.000000e-002 0.000000e+000
      endloop
   endfacet
   facet normal 0.000000e+000 0.000000e+000 -1.000000e+000
      outer loop
         vertex 3.000000e-002 -3.000000e-002 0.000000e+000
         vertex 3.000000e-002 3.000000e-002 0.000000e+000
         vertex 6.000000e-002 -3.000000e-002 0.000000e+000
      endloop
   endfacet
   facet normal 0.000000e+000 0.000000e+000 -1.000000e+000
      outer loop
         vertex 6.000000e-002 -3.000000e-002 0.000000e+000
         vertex 3.000000e-002 3.000000e-002 0.000000e+000
         vertex 6.000000e-002 3.000000e-002 0.000000e+000
      endloop
   endfacet
   facet normal 0.000000e+000 0.000000e+000 -1.000000e+000
      outer loop
         vertex 6.000000e-002 -3.000000e-002 0.000000e+000
         vertex 6.000000e-002 3.000000e-002 0.000000e+000
         vertex 6.520945e-002 -2.954423e-002 0.000000e+000
      endloop
   endfacet
   facet normal 0.000000e+000 0.000000e+000 -1.000000e+000
      outer loop
         vertex 6.520945e-002 -2.954423e-002 0.000000e+000
         vertex 6.000000e-002 3.000000e-002 0.000000e+000
         vertex 7.026060e-002 -2.819078e-002 0.000000e+000
      endloop
   endfacet
endsolid