solid Tabletop_Default_sldprt
   facet normal -1.000000e+000 0.000000e+000 0.000000e+000
      outer loop
         vertex 0.000000e+000 0.000000e+000 -1.145552e+003
         vertex 0.000000e+000 0.000000e+000 1.146448e+003
         vertex 0.000000e+000 2.540000e+001 -1.145552e+003
      endloop
   endfacet
   facet normal -1.000000e+000 0.000000e+000 0.000000e+000
      outer loop
         vertex 0.000000e+000 2.540000e+001 -1.145552e+003
         vertex 0.000000e+000 0.000000e+000 1.146448e+003
         vertex 0.000000e+000 2.540000e+001 1.146448e+003
      endloop
   endfacet
   facet normal 0.000000e+000 0.000000e+000 1.000000e+000
      outer loop
         vertex 2.746000e+003 2.540000e+001 1.400448e+003
         vertex 2.540000e+002 2.540000e+001 1.400448e+003
         vertex 2.746000e+003 0.000000e+000 1.400448e+003
      endloop
   endfacet
   facet normal 0.000000e+000 0.000000e+000 1.000000e+000
      outer loop
         vertex 2.746000e+003 0.000000e+000 1.400448e+003
         vertex 2.540000e+002 2.540000e+001 1.400448e+003
         vertex 2.540000e+002 0.000000e+000 1.400448e+003
      endloop
   endfacet
   facet normal 1.000000e+000 0.000000e+000 0.000000e+000
      outer loop
         vertex 3.000000e+003 2.540000e+001 -1.145552e+003
         vertex 3.000000e+003 2.540000e+001 1.146448e+003
         vertex 3.000000e+003 0.000000e+000 -1.145552e+003
      endloop
   endfacet
   facet normal 1.000000e+000 0.000000e+000 0.000000e+000
      outer loop
         vertex 3.000000e+003 0.000000e+000 -1.145552e+003
         vertex 3.000000e+003 2.540000e+001 1.146448e+003
         vertex 3.000000e+003 0.000000e+000 1.146448e+003
      endloop
   endfacet
   facet normal 1.480297e-016 0.000000e+000 -1.000000e+000
      outer loop
         vertex 2.540000e+002 2.540000e+001 -1.399552e+003
         vertex 2.746000e+003 2.540000e+001 -1.399552e+003
         vertex 2.540000e+002 0.000000e+000 -1.399552e+003
      endloop
   endfacet
   facet normal 1.480297e-016 0.000000e+000 -1.000000e+000
      outer loop
         vertex 2.540000e+002 0.000000e+000 -1.399552e+003
         vertex 2.746000e+003 2.540000e+001 -1.399552e+003
         vertex 2.746000e+003 0.000000e+000 -1.399552e+003
      endloop
   endfacet
   facet normal 0.000000e+000 1.000000e+000 0.000000e+000
      outer loop
         vertex 0.000000e+000 2.540000e+001 1.146448e+003
         vertex 3.000000e+003 2.540000e+001 1.146448e+003
         vertex 0.000000e+000 2.540000e+001 -1.145552e+003
      endloop
   endfacet
   facet normal 0.000000e+000 1.000000e+000 0.000000e+000
      outer loop
         vertex 0.000000e+000 2.540000e+001 -1.145552e+003
         vertex 3.000000e+003 2.540000e+001 1.146448e+003
         vertex 3.000000e+003 2.540000e+001 -1.145552e+003
      endloop
   endfacet
   facet normal 0.000000e+000 1.000000e+000 0.000000e+000
      outer loop
         vertex 0.000000e+000 2.540000e+001 -1.145552e+003
         vertex 3.000000e+003 2.540000e+001 -1.145552e+003
         vertex 2.746000e+003 2.540000e+001 -1.399552e+003
      endloop
   endfacet
   facet normal 0.000000e+000 1.000000e+000 0.000000e+000
      outer loop
         vertex 2.746000e+003 2.540000e+001 -1.399552e+003
         vertex 3.000000e+003 2.540000e+001 -1.145552e+003
         vertex 2.996141e+003 2.540000e+001 -1.189659e+003
      endloop
   endfacet
   facet normal 0.000000e+000 1.000000e+000 0.000000e+000
      outer loop
         vertex 2.746000e+003 2.540000e+001 -1.399552e+003
         vertex 2.996141e+003 2.540000e+001 -1.189659e+003
         vertex 2.984682e+003 2.540000e+001 -1.232426e+003
      endloop
   endfacet
   facet normal 0.000000e+000 1.000000e+000 0.000000e+000
      outer loop
         vertex 2.832873e+003 2.540000e+001 -1.384234e+003
         vertex 2.940575e+003 2.540000e+001 -1.308821e+003
         vertex 2.873000e+003 2.540000e+001 -1.365523e+003
      endloop
   endfacet
   facet normal 0.000000e+000 1.000000e+000 0.000000e+000
      outer loop
         vertex 2.873000e+003 2.540000e+001 -1.365523e+003
         vertex 2.940575e+003 2.540000e+001 -1.308821e+003
         vertex 2.909268e+003 2.540000e+001 -1.340128e+003
      endloop
   endfacet
   facet normal 0.000000e+000 1.000000e+000 0.000000e+000
      outer loop
         vertex 2.984682e+003 2.540000e+001 -1.232426e+003
         vertex 2.965970e+003 2.540000e+001 -1.272552e+003
         vertex 2.746000e+003 2.540000e+001 -1.399552e+003
      endloop
   endfacet
   facet normal 0.000000e+000 1.000000e+000 0.000000e+000
      outer loop
         vertex 2.746000e+003 2.540000e+001 -1.399552e+003
         vertex 2.965970e+003 2.540000e+001 -1.272552e+003
         vertex 2.940575e+003 2.540000e+001 -1.308821e+003
      endloop
   endfacet
   facet normal 0.000000e+000 1.000000e+000 0.000000e+000
      outer loop
         vertex 2.746000e+003 2.540000e+001 -1.399552e+003
         vertex 2.940575e+003 2.540000e+001 -1.308821e+003
         vertex 2.790106e+003 2.540000e+001 -1.395694e+003
      endloop
   endfacet
   facet normal 0.000000e+000 1.000000e+000 0.000000e+000
      outer loop
         vertex 2.790106e+003 2.540000e+001 -1.395694e+003
         vertex 2.940575e+003 2.540000e+001 -1.308821e+003
         vertex 2.832873e+003 2.540000e+001 -1.384234e+003
      endloop
   endfacet
   facet normal 0.000000e+000 1.000000e+000 0.000000e+000
      outer loop
         vertex 2.746000e+003 2.540000e+001 -1.399552e+003
         vertex 2.540000e+002 2.540000e+001 -1.399552e+003
         vertex 0.000000e+000 2.540000e+001 -1.145552e+003
      endloop
   endfacet
   facet normal 0.000000e+000 1.000000e+000 0.000000e+000
      outer loop
         vertex 0.000000e+000 2.540000e+001 -1.145552e+003
         vertex 2.540000e+002 2.540000e+001 -1.399552e+003
         vertex 2.098934e+002 2.540000e+001 -1.395694e+003
      endloop
   endfacet
   facet normal 0.000000e+000 1.000000e+000 0.000000e+000
      outer loop
         vertex 0.000000e+000 2.540000e+001 -1.145552e+003
         vertex 2.098934e+002 2.540000e+001 -1.395694e+003
         vertex 1.671269e+002 2.540000e+001 -1.384234e+003
      endloop
   endfacet
   facet normal 0.000000e+000 1.000000e+000 0.000000e+000
      outer loop
         vertex 3.402955e+001 2.540000e+001 -1.272552e+003
         vertex 1.531807e+001 2.540000e+001 -1.232426e+003
         vertex 5.942471e+001 2.540000e+001 -1.308821e+003
      endloop
   endfacet
   facet normal 0.000000e+000 1.000000e+000 0.000000e+000
      outer loop
         vertex 5.942471e+001 2.540000e+001 -1.308821e+003
         vertex 1.531807e+001 2.540000e+001 -1.232426e+003
         vertex 9.073195e+001 2.540000e+001 -1.340128e+003
      endloop
   endfacet
   facet normal 0.000000e+000 1.000000e+000 0.000000e+000
      outer loop
         vertex 1.671269e+002 2.540000e+001 1.385129e+003
         vertex 0.000000e+000 2.540000e+001 1.146448e+003
         vertex 1.270000e+002 2.540000e+001 1.366418e+003
      endloop
   endfacet
   facet normal 0.000000e+000 1.000000e+000 0.000000e+000
      outer loop
         vertex 1.270000e+002 2.540000e+001 1.366418e+003
         vertex 0.000000e+000 2.540000e+001 1.146448e+003
         vertex 9.073195e+001 2.540000e+001 1.341023e+003
      endloop
   endfacet
   facet normal 0.000000e+000 1.000000e+000 0.000000e+000
      outer loop
         vertex 2.746000e+003 2.540000e+001 1.400448e+003
         vertex 3.000000e+003 2.540000e+001 1.146448e+003
         vertex 2.540000e+002 2.540000e+001 1.400448e+003
      endloop
   endfacet
   facet normal 0.000000e+000 1.000000e+000 0.000000e+000
      outer loop
         vertex 2.540000e+002 2.540000e+001 1.400448e+003
         vertex 3.000000e+003 2.540000e+001 1.146448e+003
         vertex 0.000000e+000 2.540000e+001 1.146448e+003
      endloop
   endfacet
   facet normal 0.000000e+000 1.000000e+000 0.000000e+000
      outer loop
         vertex 2.540000e+002 2.540000e+001 1.400448e+003
         vertex 0.000000e+000 2.540000e+001 1.146448e+003
         vertex 2.098934e+002 2.540000e+001 1.396589e+003
      endloop
   endfacet
   facet normal 0.000000e+000 1.000000e+000 0.000000e+000
      outer loop
         vertex 2.098934e+002 2.540000e+001 1.396589e+003
         vertex 0.000000e+000 2.540000e+001 1.146448e+003
         vertex 1.671269e+002 2.540000e+001 1.385129e+003
      endloop
   endfacet
   facet normal 0.000000e+000 1.000000e+000 0.000000e+000
      outer loop
         vertex 1.531807e+001 2.540000e+001 -1.232426e+003
         vertex 3.858831e+000 2.540000e+001 -1.189659e+003
         vertex 9.073195e+001 2.540000e+001 -1.340128e+003
      endloop
   endfacet
   facet normal 0.000000e+000 1.000000e+000 0.000000e+000
      outer loop
         vertex 9.073195e+001 2.540000e+001 -1.340128e+003
         vertex 3.858831e+000 2.540000e+001 -1.189659e+003
         vertex 0.000000e+000 2.540000e+001 -1.145552e+003
      endloop
   endfacet
   facet normal 0.000000e+000 1.000000e+000 0.000000e+000
      outer loop
         vertex 9.073195e+001 2.540000e+001 -1.340128e+003
         vertex 0.000000e+000 2.540000e+001 -1.145552e+003
         vertex 1.270000e+002 2.540000e+001 -1.365523e+003
      endloop
   endfacet
   facet normal 0.000000e+000 1.000000e+000 0.000000e+000
      outer loop
         vertex 1.270000e+002 2.540000e+001 -1.365523e+003
         vertex 0.000000e+000 2.540000e+001 -1.145552e+003
         vertex 1.671269e+002 2.540000e+001 -1.384234e+003
      endloop
   endfacet
   facet normal 0.000000e+000 1.000000e+000 0.000000e+000
      outer loop
         vertex 0.000000e+000 2.540000e+001 1.146448e+003
         vertex 3.858831e+000 2.540000e+001 1.190554e+003
         vertex 9.073195e+001 2.540000e+001 1.341023e+003
      endloop
   endfacet
   facet normal 0.000000e+000 1.000000e+000 0.000000e+000
      outer loop
         vertex 9.073195e+001 2.540000e+001 1.341023e+003
         vertex 3.858831e+000 2.540000e+001 1.190554e+003
         vertex 1.531807e+001 2.540000e+001 1.233321e+003
      endloop
   endfacet
   facet normal 0.000000e+000 1.000000e+000 0.000000e+000
      outer loop
         vertex 9.073195e+001 2.540000e+001 1.341023e+003
         vertex 1.531807e+001 2.540000e+001 1.233321e+003
         vertex 5.942471e+001 2.540000e+001 1.309715e+003
      endloop
   endfacet
   facet normal 0.000000e+000 1.000000e+000 0.000000e+000
      outer loop
         vertex 5.942471e+001 2.540000e+001 1.309715e+003
         vertex 1.531807e+001 2.540000e+001 1.233321e+003
         vertex 3.402955e+001 2.540000e+001 1.273448e+003
      endloop
   endfacet
   facet normal 0.000000e+000 1.000000e+000 0.000000e+000
      outer loop
         vertex 2.746000e+003 2.540000e+001 1.400448e+003
         vertex 2.790106e+003 2.540000e+001 1.396589e+003
         vertex 3.000000e+003 2.540000e+001 1.146448e+003
      endloop
   endfacet
   facet normal 0.000000e+000 1.000000e+000 0.000000e+000
      outer loop
         vertex 3.000000e+003 2.540000e+001 1.146448e+003
         vertex 2.790106e+003 2.540000e+001 1.396589e+003
         vertex 2.832873e+003 2.540000e+001 1.385129e+003
      endloop
   endfacet
   facet normal 0.000000e+000 1.000000e+000 0.000000e+000
      outer loop
         vertex 3.000000e+003 2.540000e+001 1.146448e+003
         vertex 2.832873e+003 2.540000e+001 1.385129e+003
         vertex 2.873000e+003 2.540000e+001 1.366418e+003
      endloop
   endfacet
   facet normal 0.000000e+000 1.000000e+000 0.000000e+000
      outer loop
         vertex 2.940575e+003 2.540000e+001 1.309715e+003
         vertex 2.965970e+003 2.540000e+001 1.273448e+003
         vertex 2.984682e+003 2.540000e+001 1.233321e+003
      endloop
   endfacet
   facet normal 0.000000e+000 1.000000e+000 0.000000e+000
      outer loop
         vertex 2.873000e+003 2.540000e+001 1.366418e+003
         vertex 2.909268e+003 2.540000e+001 1.341023e+003
         vertex 3.000000e+003 2.540000e+001 1.146448e+003
      endloop
   endfacet
   facet normal 0.000000e+000 1.000000e+000 0.000000e+000
      outer loop
         vertex 3.000000e+003 2.540000e+001 1.146448e+003
         vertex 2.909268e+003 2.540000e+001 1.341023e+003
         vertex 2.940575e+003 2.540000e+001 1.309715e+003
      endloop
   endfacet
   facet normal 0.000000e+000 1.000000e+000 0.000000e+000
      outer loop
         vertex 3.000000e+003 2.540000e+001 1.146448e+003
         vertex 2.940575e+003 2.540000e+001 1.309715e+003
         vertex 2.996141e+003 2.540000e+001 1.190554e+003
      endloop
   endfacet
   facet normal 0.000000e+000 1.000000e+000 0.000000e+000
      outer loop
         vertex 2.996141e+003 2.540000e+001 1.190554e+003
         vertex 2.940575e+003 2.540000e+001 1.309715e+003
         vertex 2.984682e+003 2.540000e+001 1.233321e+003
      endloop
   endfacet
   facet normal 0.000000e+000 -1.000000e+000 0.000000e+000
      outer loop
         vertex 0.000000e+000 0.000000e+000 -1.145552e+003
         vertex 3.000000e+003 0.000000e+000 -1.145552e+003
         vertex 0.000000e+000 0.000000e+000 1.146448e+003
      endloop
   endfacet
   facet normal 0.000000e+000 -1.000000e+000 0.000000e+000
      outer loop
         vertex 0.000000e+000 0.000000e+000 1.146448e+003
         vertex 3.000000e+003 0.000000e+000 -1.145552e+003
         vertex 3.000000e+003 0.000000e+000 1.146448e+003
      endloop
   endfacet
   facet normal 0.000000e+000 -1.000000e+000 0.000000e+000
      outer loop
         vertex 3.858831e+000 0.000000e+000 -1.189659e+003
         vertex 1.531807e+001 0.000000e+000 -1.232426e+003
         vertex 2.540000e+002 0.000000e+000 -1.399552e+003
      endloop
   endfacet
   facet normal 0.000000e+000 -1.000000e+000 0.000000e+000
      outer loop
         vertex 3.000000e+003 0.000000e+000 1.146448e+003
         vertex 2.996141e+003 0.000000e+000 1.190554e+003
         vertex 2.746000e+003 0.000000e+000 1.400448e+003
      endloop
   endfacet
   facet normal 0.000000e+000 -1.000000e+000 0.000000e+000
      outer loop
         vertex 2.746000e+003 0.000000e+000 1.400448e+003
         vertex 2.996141e+003 0.000000e+000 1.190554e+003
         vertex 2.984682e+003 0.000000e+000 1.233321e+003
      endloop
   endfacet
   facet normal 0.000000e+000 -1.000000e+000 0.000000e+000
      outer loop
         vertex 2.746000e+003 0.000000e+000 1.400448e+003
         vertex 2.984682e+003 0.000000e+000 1.233321e+003
         vertex 2.965970e+003 0.000000e+000 1.273448e+003
      endloop
   endfacet
   facet normal 0.000000e+000 -1.000000e+000 0.000000e+000
      outer loop
         vertex 2.909268e+003 0.000000e+000 1.341023e+003
         vertex 2.873000e+003 0.000000e+000 1.366418e+003
         vertex 2.832873e+003 0.000000e+000 1.385129e+003
      endloop
   endfacet
   facet normal 0.000000e+000 -1.000000e+000 0.000000e+000
      outer loop
         vertex 2.098934e+002 0.000000e+000 1.396589e+003
         vertex 1.671269e+002 0.000000e+000 1.385129e+003
         vertex 0.000000e+000 0.000000e+000 1.146448e+003
      endloop
   endfacet
   facet normal 0.000000e+000 -1.000000e+000 0.000000e+000
      outer loop
         vertex 1.531807e+001 0.000000e+000 -1.232426e+003
         vertex 3.402955e+001 0.000000e+000 -1.272552e+003
         vertex 2.540000e+002 0.000000e+000 -1.399552e+003
      endloop
   endfacet
   facet normal 0.000000e+000 -1.000000e+000 0.000000e+000
      outer loop
         vertex 2.540000e+002 0.000000e+000 -1.399552e+003
         vertex 3.402955e+001 0.000000e+000 -1.272552e+003
         vertex 5.942471e+001 0.000000e+000 -1.308821e+003
      endloop
   endfacet
   facet normal 0.000000e+000 -1.000000e+000 0.000000e+000
      outer loop
         vertex 2.540000e+002 0.000000e+000 -1.399552e+003
         vertex 5.942471e+001 0.000000e+000 -1.308821e+003
         vertex 9.073195e+001 0.000000e+000 -1.340128e+003
      endloop
   endfacet
   facet normal 0.000000e+000 -1.000000e+000 0.000000e+000
      outer loop
         vertex 1.270000e+002 0.000000e+000 -1.365523e+003
         vertex 1.671269e+002 0.000000e+000 -1.384234e+003
         vertex 9.073195e+001 0.000000e+000 -1.340128e+003
      endloop
   endfacet
   facet normal 0.000000e+000 -1.000000e+000 0.000000e+000
      outer loop
         vertex 9.073195e+001 0.000000e+000 -1.340128e+003
         vertex 1.671269e+002 0.000000e+000 -1.384234e+003
         vertex 2.098934e+002 0.000000e+000 -1.395694e+003
      endloop
   endfacet
   facet normal 0.000000e+000 -1.000000e+000 0.000000e+000
      outer loop
         vertex 9.073195e+001 0.000000e+000 -1.340128e+003
         vertex 2.098934e+002 0.000000e+000 -1.395694e+003
         vertex 2.540000e+002 0.000000e+000 -1.399552e+003
      endloop
   endfacet
   facet normal 0.000000e+000 -1.000000e+000 0.000000e+000
      outer loop
         vertex 2.790106e+003 0.000000e+000 -1.395694e+003
         vertex 2.832873e+003 0.000000e+000 -1.384234e+003
         vertex 2.940575e+003 0.000000e+000 -1.308821e+003
      endloop
   endfacet
   facet normal 0.000000e+000 -1.000000e+000 0.000000e+000
      outer loop
         vertex 2.940575e+003 0.000000e+000 -1.308821e+003
         vertex 2.832873e+003 0.000000e+000 -1.384234e+003
         vertex 2.873000e+003 0.000000e+000 -1.365523e+003
      endloop
   endfacet
   facet normal 0.000000e+000 -1.000000e+000 0.000000e+000
      outer loop
         vertex 2.940575e+003 0.000000e+000 -1.308821e+003
         vertex 2.873000e+003 0.000000e+000 -1.365523e+003
         vertex 2.909268e+003 0.000000e+000 -1.340128e+003
      endloop
   endfacet
   facet normal 0.000000e+000 -1.000000e+000 0.000000e+000
      outer loop
         vertex 2.790106e+003 0.000000e+000 -1.395694e+003
         vertex 2.940575e+003 0.000000e+000 -1.308821e+003
         vertex 2.746000e+003 0.000000e+000 -1.399552e+003
      endloop
   endfacet
   facet normal 0.000000e+000 -1.000000e+000 0.000000e+000
      outer loop
         vertex 2.746000e+003 0.000000e+000 -1.399552e+003
         vertex 2.940575e+003 0.000000e+000 -1.308821e+003
         vertex 2.965970e+003 0.000000e+000 -1.272552e+003
      endloop
   endfacet
   facet normal 0.000000e+000 -1.000000e+000 0.000000e+000
      outer loop
         vertex 2.746000e+003 0.000000e+000 -1.399552e+003
         vertex 2.965970e+003 0.000000e+000 -1.272552e+003
         vertex 2.984682e+003 0.000000e+000 -1.232426e+003
      endloop
   endfacet
   facet normal 0.000000e+000 -1.000000e+000 0.000000e+000
      outer loop
         vertex 2.984682e+003 0.000000e+000 -1.232426e+003
         vertex 2.996141e+003 0.000000e+000 -1.189659e+003
         vertex 2.746000e+003 0.000000e+000 -1.399552e+003
      endloop
   endfacet
   facet normal 0.000000e+000 -1.000000e+000 0.000000e+000
      outer loop
         vertex 2.746000e+003 0.000000e+000 -1.399552e+003
         vertex 2.996141e+003 0.000000e+000 -1.189659e+003
         vertex 3.000000e+003 0.000000e+000 -1.145552e+003
      endloop
   endfacet
   facet normal 0.000000e+000 -1.000000e+000 0.000000e+000
      outer loop
         vertex 2.746000e+003 0.000000e+000 -1.399552e+003
         vertex 3.000000e+003 0.000000e+000 -1.145552e+003
         vertex 2.540000e+002 0.000000e+000 -1.399552e+003
      endloop
   endfacet
   facet normal 0.000000e+000 -1.000000e+000 0.000000e+000
      outer loop
         vertex 2.540000e+002 0.000000e+000 -1.399552e+003
         vertex 3.000000e+003 0.000000e+000 -1.145552e+003
         vertex 0.000000e+000 0.000000e+000 -1.145552e+003
      endloop
   endfacet
   facet normal 0.000000e+000 -1.000000e+000 0.000000e+000
      outer loop
         vertex 2.540000e+002 0.000000e+000 -1.399552e+003
         vertex 0.000000e+000 0.000000e+000 -1.145552e+003
         vertex 3.858831e+000 0.000000e+000 -1.189659e+003
      endloop
   endfacet
   facet normal 0.000000e+000 -1.000000e+000 0.000000e+000
      outer loop
         vertex 2.965970e+003 0.000000e+000 1.273448e+003
         vertex 2.940575e+003 0.000000e+000 1.309715e+003
         vertex 2.746000e+003 0.000000e+000 1.400448e+003
      endloop
   endfacet
   facet normal 0.000000e+000 -1.000000e+000 0.000000e+000
      outer loop
         vertex 2.746000e+003 0.000000e+000 1.400448e+003
         vertex 2.940575e+003 0.000000e+000 1.309715e+003
         vertex 2.909268e+003 0.000000e+000 1.341023e+003
      endloop
   endfacet
   facet normal 0.000000e+000 -1.000000e+000 0.000000e+000
      outer loop
         vertex 2.746000e+003 0.000000e+000 1.400448e+003
         vertex 2.909268e+003 0.000000e+000 1.341023e+003
         vertex 2.790106e+003 0.000000e+000 1.396589e+003
      endloop
   endfacet
   facet normal 0.000000e+000 -1.000000e+000 0.000000e+000
      outer loop
         vertex 2.790106e+003 0.000000e+000 1.396589e+003
         vertex 2.909268e+003 0.000000e+000 1.341023e+003
         vertex 2.832873e+003 0.000000e+000 1.385129e+003
      endloop
   endfacet
   facet normal 0.000000e+000 -1.000000e+000 0.000000e+000
      outer loop
         vertex 3.000000e+003 0.000000e+000 1.146448e+003
         vertex 2.746000e+003 0.000000e+000 1.400448e+003
         vertex 0.000000e+000 0.000000e+000 1.146448e+003
      endloop
   endfacet
   facet normal 0.000000e+000 -1.000000e+000 0.000000e+000
      outer loop
         vertex 0.000000e+000 0.000000e+000 1.146448e+003
         vertex 2.746000e+003 0.000000e+000 1.400448e+003
         vertex 2.540000e+002 0.000000e+000 1.400448e+003
      endloop
   endfacet
   facet normal 0.000000e+000 -1.000000e+000 0.000000e+000
      outer loop
         vertex 0.000000e+000 0.000000e+000 1.146448e+003
         vertex 2.540000e+002 0.000000e+000 1.400448e+003
         vertex 2.098934e+002 0.000000e+000 1.396589e+003
      endloop
   endfacet
   facet normal 0.000000e+000 -1.000000e+000 0.000000e+000
      outer loop
         vertex 3.402955e+001 0.000000e+000 1.273448e+003
         vertex 1.531807e+001 0.000000e+000 1.233321e+003
         vertex 5.942471e+001 0.000000e+000 1.309715e+003
      endloop
   endfacet
   facet normal 0.000000e+000 -1.000000e+000 0.000000e+000
      outer loop
         vertex 5.942471e+001 0.000000e+000 1.309715e+003
         vertex 1.531807e+001 0.000000e+000 1.233321e+003
         vertex 9.073195e+001 0.000000e+000 1.341023e+003
      endloop
   endfacet
   facet normal 0.000000e+000 -1.000000e+000 0.000000e+000
      outer loop
         vertex 1.671269e+002 0.000000e+000 1.385129e+003
         vertex 1.270000e+002 0.000000e+000 1.366418e+003
         vertex 0.000000e+000 0.000000e+000 1.146448e+003
      endloop
   endfacet
   facet normal 0.000000e+000 -1.000000e+000 0.000000e+000
      outer loop
         vertex 0.000000e+000 0.000000e+000 1.146448e+003
         vertex 1.270000e+002 0.000000e+000 1.366418e+003
         vertex 9.073195e+001 0.000000e+000 1.341023e+003
      endloop
   endfacet
   facet normal 0.000000e+000 -1.000000e+000 0.000000e+000
      outer loop
         vertex 0.000000e+000 0.000000e+000 1.146448e+003
         vertex 9.073195e+001 0.000000e+000 1.341023e+003
         vertex 3.858831e+000 0.000000e+000 1.190554e+003
      endloop
   endfacet
   facet normal 0.000000e+000 -1.000000e+000 0.000000e+000
      outer loop
         vertex 3.858831e+000 0.000000e+000 1.190554e+003
         vertex 9.073195e+001 0.000000e+000 1.341023e+003
         vertex 1.531807e+001 0.000000e+000 1.233321e+003
      endloop
   endfacet
   facet normal -5.807913e-002 0.000000e+000 -9.983119e-001
      outer loop
         vertex 2.540000e+002 2.540000e+001 -1.399552e+003
         vertex 2.540000e+002 0.000000e+000 -1.399552e+003
         vertex 2.098934e+002 0.000000e+000 -1.395694e+003
      endloop
   endfacet
   facet normal -1.161583e-001 0.000000e+000 -9.932307e-001
      outer loop
         vertex 2.540000e+002 2.540000e+001 -1.399552e+003
         vertex 2.098934e+002 0.000000e+000 -1.395694e+003
         vertex 2.098934e+002 2.540000e+001 -1.395694e+003
      endloop
   endfacet
   facet normal -2.305519e-001 0.000000e+000 -9.730600e-001
      outer loop
         vertex 2.098934e+002 2.540000e+001 -1.395694e+003
         vertex 2.098934e+002 0.000000e+000 -1.395694e+003
         vertex 1.671269e+002 0.000000e+000 -1.384234e+003
      endloop
   endfacet
   facet normal -2.868663e-001 0.000000e+000 -9.579706e-001
      outer loop
         vertex 2.098934e+002 2.540000e+001 -1.395694e+003
         vertex 1.671269e+002 0.000000e+000 -1.384234e+003
         vertex 1.671269e+002 2.540000e+001 -1.384234e+003
      endloop
   endfacet
   facet normal -3.960194e-001 0.000000e+000 -9.182422e-001
      outer loop
         vertex 1.671269e+002 2.540000e+001 -1.384234e+003
         vertex 1.671269e+002 0.000000e+000 -1.384234e+003
         vertex 1.270000e+002 0.000000e+000 -1.365523e+003
      endloop
   endfacet
   facet normal -4.488580e-001 0.000000e+000 -8.936031e-001
      outer loop
         vertex 1.671269e+002 2.540000e+001 -1.384234e+003
         vertex 1.270000e+002 0.000000e+000 -1.365523e+003
         vertex 1.270000e+002 2.540000e+001 -1.365523e+003
      endloop
   endfacet
   facet normal -5.494540e-001 0.000000e+000 -8.355240e-001
      outer loop
         vertex 1.270000e+002 2.540000e+001 -1.365523e+003
         vertex 1.270000e+002 0.000000e+000 -1.365523e+003
         vertex 9.073195e+001 0.000000e+000 -1.340128e+003
      endloop
   endfacet
   facet normal -5.972114e-001 0.000000e+000 -8.020838e-001
      outer loop
         vertex 1.270000e+002 2.540000e+001 -1.365523e+003
         vertex 9.073195e+001 0.000000e+000 -1.340128e+003
         vertex 9.073195e+001 2.540000e+001 -1.340128e+003
      endloop
   endfacet
   facet normal -6.861938e-001 0.000000e+000 -7.274188e-001
      outer loop
         vertex 9.073195e+001 2.540000e+001 -1.340128e+003
         vertex 9.073195e+001 0.000000e+000 -1.340128e+003
         vertex 5.942471e+001 0.000000e+000 -1.308821e+003
      endloop
   endfacet
   facet normal -7.274188e-001 0.000000e+000 -6.861938e-001
      outer loop
         vertex 9.073195e+001 2.540000e+001 -1.340128e+003
         vertex 5.942471e+001 0.000000e+000 -1.308821e+003
         vertex 5.942471e+001 2.540000e+001 -1.308821e+003
      endloop
   endfacet
   facet normal -8.020838e-001 0.000000e+000 -5.972114e-001
      outer loop
         vertex 5.942471e+001 2.540000e+001 -1.308821e+003
         vertex 5.942471e+001 0.000000e+000 -1.308821e+003
         vertex 3.402955e+001 0.000000e+000 -1.272552e+003
      endloop
   endfacet
   facet normal -8.355240e-001 0.000000e+000 -5.494540e-001
      outer loop
         vertex 5.942471e+001 2.540000e+001 -1.308821e+003
         vertex 3.402955e+001 0.000000e+000 -1.272552e+003
         vertex 3.402955e+001 2.540000e+001 -1.272552e+003
      endloop
   endfacet
   facet normal -8.936031e-001 0.000000e+000 -4.488580e-001
      outer loop
         vertex 3.402955e+001 2.540000e+001 -1.272552e+003
         vertex 3.402955e+001 0.000000e+000 -1.272552e+003
         vertex 1.531807e+001 0.000000e+000 -1.232426e+003
      endloop
   endfacet
   facet normal -9.182422e-001 0.000000e+000 -3.960194e-001
      outer loop
         vertex 3.402955e+001 2.540000e+001 -1.272552e+003
         vertex 1.531807e+001 0.000000e+000 -1.232426e+003
         vertex 1.531807e+001 2.540000e+001 -1.232426e+003
      endloop
   endfacet
   facet normal -9.579706e-001 0.000000e+000 -2.868663e-001
      outer loop
         vertex 1.531807e+001 2.540000e+001 -1.232426e+003
         vertex 1.531807e+001 0.000000e+000 -1.232426e+003
         vertex 3.858831e+000 0.000000e+000 -1.189659e+003
      endloop
   endfacet
   facet normal -9.730600e-001 0.000000e+000 -2.305519e-001
      outer loop
         vertex 1.531807e+001 2.540000e+001 -1.232426e+003
         vertex 3.858831e+000 0.000000e+000 -1.189659e+003
         vertex 3.858831e+000 2.540000e+001 -1.189659e+003
      endloop
   endfacet
   facet normal -9.932307e-001 0.000000e+000 -1.161583e-001
      outer loop
         vertex 3.858831e+000 2.540000e+001 -1.189659e+003
         vertex 3.858831e+000 0.000000e+000 -1.189659e+003
         vertex 0.000000e+000 0.000000e+000 -1.145552e+003
      endloop
   endfacet
   facet normal -9.983119e-001 0.000000e+000 -5.807913e-002
      outer loop
         vertex 3.858831e+000 2.540000e+001 -1.189659e+003
         vertex 0.000000e+000 0.000000e+000 -1.145552e+003
         vertex 0.000000e+000 2.540000e+001 -1.145552e+003
      endloop
   endfacet
   facet normal 9.983119e-001 0.000000e+000 -5.807913e-002
      outer loop
         vertex 3.000000e+003 2.540000e+001 -1.145552e+003
         vertex 3.000000e+003 0.000000e+000 -1.145552e+003
         vertex 2.996141e+003 0.000000e+000 -1.189659e+003
      endloop
   endfacet
   facet normal 9.932307e-001 0.000000e+000 -1.161583e-001
      outer loop
         vertex 3.000000e+003 2.540000e+001 -1.145552e+003
         vertex 2.996141e+003 0.000000e+000 -1.189659e+003
         vertex 2.996141e+003 2.540000e+001 -1.189659e+003
      endloop
   endfacet
   facet normal 9.730600e-001 0.000000e+000 -2.305519e-001
      outer loop
         vertex 2.996141e+003 2.540000e+001 -1.189659e+003
         vertex 2.996141e+003 0.000000e+000 -1.189659e+003
         vertex 2.984682e+003 0.000000e+000 -1.232426e+003
      endloop
   endfacet
   facet normal 9.579706e-001 0.000000e+000 -2.868663e-001
      outer loop
         vertex 2.996141e+003 2.540000e+001 -1.189659e+003
         vertex 2.984682e+003 0.000000e+000 -1.232426e+003
         vertex 2.984682e+003 2.540000e+001 -1.232426e+003
      endloop
   endfacet
   facet normal 9.182422e-001 0.000000e+000 -3.960194e-001
      outer loop
         vertex 2.984682e+003 2.540000e+001 -1.232426e+003
         vertex 2.984682e+003 0.000000e+000 -1.232426e+003
         vertex 2.965970e+003 0.000000e+000 -1.272552e+003
      endloop
   endfacet
   facet normal 8.936031e-001 0.000000e+000 -4.488580e-001
      outer loop
         vertex 2.984682e+003 2.540000e+001 -1.232426e+003
         vertex 2.965970e+003 0.000000e+000 -1.272552e+003
         vertex 2.965970e+003 2.540000e+001 -1.272552e+003
      endloop
   endfacet
   facet normal 8.355240e-001 0.000000e+000 -5.494540e-001
      outer loop
         vertex 2.965970e+003 2.540000e+001 -1.272552e+003
         vertex 2.965970e+003 0.000000e+000 -1.272552e+003
         vertex 2.940575e+003 0.000000e+000 -1.308821e+003
      endloop
   endfacet
   facet normal 8.020838e-001 0.000000e+000 -5.972114e-001
      outer loop
         vertex 2.965970e+003 2.540000e+001 -1.272552e+003
         vertex 2.940575e+003 0.000000e+000 -1.308821e+003
         vertex 2.940575e+003 2.540000e+001 -1.308821e+003
      endloop
   endfacet
   facet normal 7.274188e-001 0.000000e+000 -6.861938e-001
      outer loop
         vertex 2.940575e+003 2.540000e+001 -1.308821e+003
         vertex 2.940575e+003 0.000000e+000 -1.308821e+003
         vertex 2.909268e+003 0.000000e+000 -1.340128e+003
      endloop
   endfacet
   facet normal 6.861938e-001 0.000000e+000 -7.274188e-001
      outer loop
         vertex 2.940575e+003 2.540000e+001 -1.308821e+003
         vertex 2.909268e+003 0.000000e+000 -1.340128e+003
         vertex 2.909268e+003 2.540000e+001 -1.340128e+003
      endloop
   endfacet
   facet normal 5.972114e-001 0.000000e+000 -8.020838e-001
      outer loop
         vertex 2.909268e+003 2.540000e+001 -1.340128e+003
         vertex 2.909268e+003 0.000000e+000 -1.340128e+003
         vertex 2.873000e+003 0.000000e+000 -1.365523e+003
      endloop
   endfacet
   facet normal 5.494540e-001 0.000000e+000 -8.355240e-001
      outer loop
         vertex 2.909268e+003 2.540000e+001 -1.340128e+003
         vertex 2.873000e+003 0.000000e+000 -1.365523e+003
         vertex 2.873000e+003 2.540000e+001 -1.365523e+003
      endloop
   endfacet
   facet normal 4.488580e-001 0.000000e+000 -8.936031e-001
      outer loop
         vertex 2.873000e+003 2.540000e+001 -1.365523e+003
         vertex 2.873000e+003 0.000000e+000 -1.365523e+003
         vertex 2.832873e+003 0.000000e+000 -1.384234e+003
      endloop
   endfacet
   facet normal 3.960194e-001 0.000000e+000 -9.182422e-001
      outer loop
         vertex 2.873000e+003 2.540000e+001 -1.365523e+003
         vertex 2.832873e+003 0.000000e+000 -1.384234e+003
         vertex 2.832873e+003 2.540000e+001 -1.384234e+003
      endloop
   endfacet
   facet normal 2.868663e-001 0.000000e+000 -9.579706e-001
      outer loop
         vertex 2.832873e+003 2.540000e+001 -1.384234e+003
         vertex 2.832873e+003 0.000000e+000 -1.384234e+003
         vertex 2.790106e+003 0.000000e+000 -1.395694e+003
      endloop
   endfacet
   facet normal 2.305519e-001 0.000000e+000 -9.730600e-001
      outer loop
         vertex 2.832873e+003 2.540000e+001 -1.384234e+003
         vertex 2.790106e+003 0.000000e+000 -1.395694e+003
         vertex 2.790106e+003 2.540000e+001 -1.395694e+003
      endloop
   endfacet
   facet normal 1.161583e-001 0.000000e+000 -9.932307e-001
      outer loop
         vertex 2.790106e+003 2.540000e+001 -1.395694e+003
         vertex 2.790106e+003 0.000000e+000 -1.395694e+003
         vertex 2.746000e+003 0.000000e+000 -1.399552e+003
      endloop
   endfacet
   facet normal 5.807913e-002 0.000000e+000 -9.983119e-001
      outer loop
         vertex 2.790106e+003 2.540000e+001 -1.395694e+003
         vertex 2.746000e+003 0.000000e+000 -1.399552e+003
         vertex 2.746000e+003 2.540000e+001 -1.399552e+003
      endloop
   endfacet
   facet normal 5.807913e-002 0.000000e+000 9.983119e-001
      outer loop
         vertex 2.746000e+003 2.540000e+001 1.400448e+003
         vertex 2.746000e+003 0.000000e+000 1.400448e+003
         vertex 2.790106e+003 0.000000e+000 1.396589e+003
      endloop
   endfacet
   facet normal 1.161583e-001 0.000000e+000 9.932307e-001
      outer loop
         vertex 2.746000e+003 2.540000e+001 1.400448e+003
         vertex 2.790106e+003 0.000000e+000 1.396589e+003
         vertex 2.790106e+003 2.540000e+001 1.396589e+003
      endloop
   endfacet
   facet normal 2.305519e-001 0.000000e+000 9.730600e-001
      outer loop
         vertex 2.790106e+003 2.540000e+001 1.396589e+003
         vertex 2.790106e+003 0.000000e+000 1.396589e+003
         vertex 2.832873e+003 0.000000e+000 1.385129e+003
      endloop
   endfacet
   facet normal 2.868663e-001 0.000000e+000 9.579706e-001
      outer loop
         vertex 2.790106e+003 2.540000e+001 1.396589e+003
         vertex 2.832873e+003 0.000000e+000 1.385129e+003
         vertex 2.832873e+003 2.540000e+001 1.385129e+003
      endloop
   endfacet
   facet normal 3.960194e-001 0.000000e+000 9.182422e-001
      outer loop
         vertex 2.832873e+003 2.540000e+001 1.385129e+003
         vertex 2.832873e+003 0.000000e+000 1.385129e+003
         vertex 2.873000e+003 0.000000e+000 1.366418e+003
      endloop
   endfacet
   facet normal 4.488580e-001 0.000000e+000 8.936031e-001
      outer loop
         vertex 2.832873e+003 2.540000e+001 1.385129e+003
         vertex 2.873000e+003 0.000000e+000 1.366418e+003
         vertex 2.873000e+003 2.540000e+001 1.366418e+003
      endloop
   endfacet
   facet normal 5.494540e-001 0.000000e+000 8.355240e-001
      outer loop
         vertex 2.873000e+003 2.540000e+001 1.366418e+003
         vertex 2.873000e+003 0.000000e+000 1.366418e+003
         vertex 2.909268e+003 0.000000e+000 1.341023e+003
      endloop
   endfacet
   facet normal 5.972114e-001 0.000000e+000 8.020838e-001
      outer loop
         vertex 2.873000e+003 2.540000e+001 1.366418e+003
         vertex 2.909268e+003 0.000000e+000 1.341023e+003
         vertex 2.909268e+003 2.540000e+001 1.341023e+003
      endloop
   endfacet
   facet normal 6.861938e-001 0.000000e+000 7.274188e-001
      outer loop
         vertex 2.909268e+003 2.540000e+001 1.341023e+003
         vertex 2.909268e+003 0.000000e+000 1.341023e+003
         vertex 2.940575e+003 0.000000e+000 1.309715e+003
      endloop
   endfacet
   facet normal 7.274188e-001 0.000000e+000 6.861938e-001
      outer loop
         vertex 2.909268e+003 2.540000e+001 1.341023e+003
         vertex 2.940575e+003 0.000000e+000 1.309715e+003
         vertex 2.940575e+003 2.540000e+001 1.309715e+003
      endloop
   endfacet
   facet normal 8.020838e-001 0.000000e+000 5.972114e-001
      outer loop
         vertex 2.940575e+003 2.540000e+001 1.309715e+003
         vertex 2.940575e+003 0.000000e+000 1.309715e+003
         vertex 2.965970e+003 0.000000e+000 1.273448e+003
      endloop
   endfacet
   facet normal 8.355240e-001 0.000000e+000 5.494540e-001
      outer loop
         vertex 2.940575e+003 2.540000e+001 1.309715e+003
         vertex 2.965970e+003 0.000000e+000 1.273448e+003
         vertex 2.965970e+003 2.540000e+001 1.273448e+003
      endloop
   endfacet
   facet normal 8.936031e-001 0.000000e+000 4.488580e-001
      outer loop
         vertex 2.965970e+003 2.540000e+001 1.273448e+003
         vertex 2.965970e+003 0.000000e+000 1.273448e+003
         vertex 2.984682e+003 0.000000e+000 1.233321e+003
      endloop
   endfacet
   facet normal 9.182422e-001 0.000000e+000 3.960194e-001
      outer loop
         vertex 2.965970e+003 2.540000e+001 1.273448e+003
         vertex 2.984682e+003 0.000000e+000 1.233321e+003
         vertex 2.984682e+003 2.540000e+001 1.233321e+003
      endloop
   endfacet
   facet normal 9.579706e-001 0.000000e+000 2.868663e-001
      outer loop
         vertex 2.984682e+003 2.540000e+001 1.233321e+003
         vertex 2.984682e+003 0.000000e+000 1.233321e+003
         vertex 2.996141e+003 0.000000e+000 1.190554e+003
      endloop
   endfacet
   facet normal 9.730600e-001 0.000000e+000 2.305519e-001
      outer loop
         vertex 2.984682e+003 2.540000e+001 1.233321e+003
         vertex 2.996141e+003 0.000000e+000 1.190554e+003
         vertex 2.996141e+003 2.540000e+001 1.190554e+003
      endloop
   endfacet
   facet normal 9.932307e-001 0.000000e+000 1.161583e-001
      outer loop
         vertex 2.996141e+003 2.540000e+001 1.190554e+003
         vertex 2.996141e+003 0.000000e+000 1.190554e+003
         vertex 3.000000e+003 0.000000e+000 1.146448e+003
      endloop
   endfacet
   facet normal 9.983119e-001 0.000000e+000 5.807913e-002
      outer loop
         vertex 2.996141e+003 2.540000e+001 1.190554e+003
         vertex 3.000000e+003 0.000000e+000 1.146448e+003
         vertex 3.000000e+003 2.540000e+001 1.146448e+003
      endloop
   endfacet
   facet normal -9.983119e-001 0.000000e+000 5.807913e-002
      outer loop
         vertex 0.000000e+000 2.540000e+001 1.146448e+003
         vertex 0.000000e+000 0.000000e+000 1.146448e+003
         vertex 3.858831e+000 0.000000e+000 1.190554e+003
      endloop
   endfacet
   facet normal -9.932307e-001 0.000000e+000 1.161583e-001
      outer loop
         vertex 0.000000e+000 2.540000e+001 1.146448e+003
         vertex 3.858831e+000 0.000000e+000 1.190554e+003
         vertex 3.858831e+000 2.540000e+001 1.190554e+003
      endloop
   endfacet
   facet normal -9.730600e-001 0.000000e+000 2.305519e-001
      outer loop
         vertex 3.858831e+000 2.540000e+001 1.190554e+003
         vertex 3.858831e+000 0.000000e+000 1.190554e+003
         vertex 1.531807e+001 0.000000e+000 1.233321e+003
      endloop
   endfacet
   facet normal -9.579706e-001 0.000000e+000 2.868663e-001
      outer loop
         vertex 3.858831e+000 2.540000e+001 1.190554e+003
         vertex 1.531807e+001 0.000000e+000 1.233321e+003
         vertex 1.531807e+001 2.540000e+001 1.233321e+003
      endloop
   endfacet
   facet normal -9.182422e-001 0.000000e+000 3.960194e-001
      outer loop
         vertex 1.531807e+001 2.540000e+001 1.233321e+003
         vertex 1.531807e+001 0.000000e+000 1.233321e+003
         vertex 3.402955e+001 0.000000e+000 1.273448e+003
      endloop
   endfacet
   facet normal -8.936031e-001 0.000000e+000 4.488580e-001
      outer loop
         vertex 1.531807e+001 2.540000e+001 1.233321e+003
         vertex 3.402955e+001 0.000000e+000 1.273448e+003
         vertex 3.402955e+001 2.540000e+001 1.273448e+003
      endloop
   endfacet
   facet normal -8.355240e-001 0.000000e+000 5.494540e-001
      outer loop
         vertex 3.402955e+001 2.540000e+001 1.273448e+003
         vertex 3.402955e+001 0.000000e+000 1.273448e+003
         vertex 5.942471e+001 0.000000e+000 1.309715e+003
      endloop
   endfacet
   facet normal -8.020838e-001 0.000000e+000 5.972114e-001
      outer loop
         vertex 3.402955e+001 2.540000e+001 1.273448e+003
         vertex 5.942471e+001 0.000000e+000 1.309715e+003
         vertex 5.942471e+001 2.540000e+001 1.309715e+003
      endloop
   endfacet
   facet normal -7.274188e-001 0.000000e+000 6.861938e-001
      outer loop
         vertex 5.942471e+001 2.540000e+001 1.309715e+003
         vertex 5.942471e+001 0.000000e+000 1.309715e+003
         vertex 9.073195e+001 0.000000e+000 1.341023e+003
      endloop
   endfacet
   facet normal -6.861938e-001 0.000000e+000 7.274188e-001
      outer loop
         vertex 5.942471e+001 2.540000e+001 1.309715e+003
         vertex 9.073195e+001 0.000000e+000 1.341023e+003
         vertex 9.073195e+001 2.540000e+001 1.341023e+003
      endloop
   endfacet
   facet normal -5.972114e-001 0.000000e+000 8.020838e-001
      outer loop
         vertex 9.073195e+001 2.540000e+001 1.341023e+003
         vertex 9.073195e+001 0.000000e+000 1.341023e+003
         vertex 1.270000e+002 0.000000e+000 1.366418e+003
      endloop
   endfacet
   facet normal -5.494540e-001 0.000000e+000 8.355240e-001
      outer loop
         vertex 9.073195e+001 2.540000e+001 1.341023e+003
         vertex 1.270000e+002 0.000000e+000 1.366418e+003
         vertex 1.270000e+002 2.540000e+001 1.366418e+003
      endloop
   endfacet
   facet normal -4.488580e-001 0.000000e+000 8.936031e-001
      outer loop
         vertex 1.270000e+002 2.540000e+001 1.366418e+003
         vertex 1.270000e+002 0.000000e+000 1.366418e+003
         vertex 1.671269e+002 0.000000e+000 1.385129e+003
      endloop
   endfacet
   facet normal -3.960194e-001 0.000000e+000 9.182422e-001
      outer loop
         vertex 1.270000e+002 2.540000e+001 1.366418e+003
         vertex 1.671269e+002 0.000000e+000 1.385129e+003
         vertex 1.671269e+002 2.540000e+001 1.385129e+003
      endloop
   endfacet
   facet normal -2.868663e-001 0.000000e+000 9.579706e-001
      outer loop
         vertex 1.671269e+002 2.540000e+001 1.385129e+003
         vertex 1.671269e+002 0.000000e+000 1.385129e+003
         vertex 2.098934e+002 0.000000e+000 1.396589e+003
      endloop
   endfacet
   facet normal -2.305519e-001 0.000000e+000 9.730600e-001
      outer loop
         vertex 1.671269e+002 2.540000e+001 1.385129e+003
         vertex 2.098934e+002 0.000000e+000 1.396589e+003
         vertex 2.098934e+002 2.540000e+001 1.396589e+003
      endloop
   endfacet
   facet normal -1.161583e-001 0.000000e+000 9.932307e-001
      outer loop
         vertex 2.098934e+002 2.540000e+001 1.396589e+003
         vertex 2.098934e+002 0.000000e+000 1.396589e+003
         vertex 2.540000e+002 0.000000e+000 1.400448e+003
      endloop
   endfacet
   facet normal -5.807913e-002 0.000000e+000 9.983119e-001
      outer loop
         vertex 2.098934e+002 2.540000e+001 1.396589e+003
         vertex 2.540000e+002 0.000000e+000 1.400448e+003
         vertex 2.540000e+002 2.540000e+001 1.400448e+003
      endloop
   endfacet
endsolid